<svg width="88" height="77" viewBox="0 0 88 77" fill="none" xmlns="http://www.w3.org/2000/svg">
<path d="M25.3739 76H62.8741M38.4996 64.75V76M49.7496 64.75V76M4.75001 1H83.5003C85.5714 1 87.2503 2.67894 87.2503 4.75001V61.0002C87.2503 63.0713 85.5714 64.7502 83.5003 64.7502H4.75001C2.67894 64.7502 1 63.0713 1 61.0002V4.75001C1 2.67894 2.67894 1 4.75001 1Z" stroke="white" stroke-linecap="round" stroke-linejoin="round"/>
<path fill-rule="evenodd" clip-rule="evenodd" d="M51.625 41.6875C51.7742 41.6875 51.9173 41.7468 52.0227 41.8523C52.1282 41.9577 52.1875 42.1008 52.1875 42.25C52.1875 42.3992 52.1282 42.5423 52.0227 42.6477C51.9173 42.7532 51.7742 42.8125 51.625 42.8125C51.4758 42.8125 51.3327 42.7532 51.2273 42.6477C51.1218 42.5423 51.0625 42.3992 51.0625 42.25C51.0625 42.1008 51.1218 41.9577 51.2273 41.8523C51.3327 41.7468 51.4758 41.6875 51.625 41.6875ZM49.375 42.25C49.375 43.4905 50.3845 44.5 51.625 44.5C52.8655 44.5 53.875 43.4905 53.875 42.25C53.875 41.0095 52.8655 40 51.625 40C50.3845 40 49.375 41.0095 49.375 42.25ZM33.25 42.9182C33.1008 42.9182 32.9577 42.859 32.8523 42.7535C32.7468 42.648 32.6875 42.5049 32.6875 42.3557C32.6875 42.2066 32.7468 42.0635 32.8523 41.958C32.9577 41.8525 33.1008 41.7932 33.25 41.7932C33.3992 41.7932 33.5423 41.8525 33.6477 41.958C33.7532 42.0635 33.8125 42.2066 33.8125 42.3557C33.8125 42.5049 33.7532 42.648 33.6477 42.7535C33.5423 42.859 33.3992 42.9182 33.25 42.9182ZM33.25 39.9933C32.0095 39.9933 31 41.0028 31 42.2433C31 43.4838 32.0095 44.4933 33.25 44.4933C34.4905 44.4933 35.5 43.4838 35.5 42.2433C35.5 41.0028 34.4905 39.9933 33.25 39.9933ZM54.2147 31.957L50.3403 32.0792L50.494 27.625H55.4253L55.249 30.9108C55.21 31.477 54.754 31.9262 54.2147 31.957ZM38.4272 30.8778L37.7282 27.625H42.6257V32.323L38.5082 32.4528C38.551 31.9315 38.5307 31.4028 38.4272 30.8778ZM40.75 22.75H42.625V26.5H37.4853L36.5673 22.228C37.5933 22.522 38.9575 22.75 40.75 22.75ZM49.3675 27.625L49.213 32.1145L43.75 32.287V27.625H49.3675ZM49.5363 22.75L49.4065 26.5H43.75V22.75H49.5363ZM55.486 26.5H50.533L50.662 22.75H55.6877L55.486 26.5ZM57.6917 20.851C57.5866 20.7401 57.4599 20.6518 57.3195 20.5914C57.1791 20.5311 57.0278 20.5 56.875 20.5H40.75C38.1445 20.5 36.6835 19.9622 36.004 19.6097L35.9402 19.3135C35.8279 18.8012 35.5445 18.3425 35.1366 18.0128C34.7287 17.6832 34.2207 17.5023 33.6963 17.5H31V19.75L33.7397 19.786L36.2238 31.33C36.3143 31.7914 36.3076 32.2666 36.2038 32.7252C36.1001 33.1838 35.9018 33.6157 35.6215 33.9932L34.2445 35.764C33.941 36.1509 33.7531 36.6158 33.7024 37.1049C33.6517 37.5941 33.7403 38.0875 33.958 38.5285C34.1725 38.9713 34.5079 39.3444 34.9254 39.6048C35.3429 39.8651 35.8255 40.0021 36.3175 40H53.8375V37.75H36.3175C36.2468 37.7521 36.1771 37.7333 36.1171 37.6959C36.057 37.6586 36.0093 37.6043 35.98 37.54C35.9473 37.4774 35.9337 37.4067 35.9407 37.3364C35.9478 37.2662 35.9753 37.1996 36.0197 37.1448L37.4088 35.359C37.5603 35.1572 37.6923 34.9435 37.8145 34.7253L54.3123 34.2048C55.1366 34.1573 55.9151 33.8101 56.5012 33.2285C57.0873 32.647 57.4406 31.8712 57.4945 31.0472L57.9985 21.6858C58.0067 21.5331 57.9837 21.3803 57.9309 21.2368C57.8782 21.0933 57.7968 20.9621 57.6917 20.851Z" fill="white"/>
</svg>
