<svg width="102" height="89" viewBox="0 0 102 89" fill="none" xmlns="http://www.w3.org/2000/svg">
<path d="M29.2595 87.9562H72.7378M44.4776 74.9127V87.9562M57.5211 74.9127V87.9562M5.34783 1H96.6522C99.0534 1 101 2.94659 101 5.34783V70.5652C101 72.9665 99.0534 74.913 96.6522 74.913H5.34783C2.94659 74.913 1 72.9665 1 70.5652V5.34783C1 2.94659 2.94659 1 5.34783 1Z" stroke="#3BA605" stroke-linecap="round" stroke-linejoin="round"/>
<path fill-rule="evenodd" clip-rule="evenodd" d="M59.6961 48.1737C59.8691 48.1737 60.035 48.2424 60.1573 48.3648C60.2796 48.4871 60.3483 48.6529 60.3483 48.8259C60.3483 48.9989 60.2796 49.1648 60.1573 49.2871C60.035 49.4094 59.8691 49.4781 59.6961 49.4781C59.5232 49.4781 59.3573 49.4094 59.235 49.2871C59.1127 49.1648 59.044 48.9989 59.044 48.8259C59.044 48.6529 59.1127 48.4871 59.235 48.3648C59.3573 48.2424 59.5232 48.1737 59.6961 48.1737ZM57.0875 48.8259C57.0875 50.2642 58.2579 51.4346 59.6961 51.4346C61.1344 51.4346 62.3048 50.2642 62.3048 48.8259C62.3048 47.3877 61.1344 46.2172 59.6961 46.2172C58.2579 46.2172 57.0875 47.3877 57.0875 48.8259ZM38.3919 49.6007C38.2189 49.6007 38.053 49.532 37.9307 49.4097C37.8084 49.2874 37.7397 49.1215 37.7397 48.9485C37.7397 48.7756 37.8084 48.6097 37.9307 48.4874C38.053 48.3651 38.2189 48.2963 38.3919 48.2963C38.5649 48.2963 38.7307 48.3651 38.853 48.4874C38.9753 48.6097 39.0441 48.7756 39.0441 48.9485C39.0441 49.1215 38.9753 49.2874 38.853 49.4097C38.7307 49.532 38.5649 49.6007 38.3919 49.6007ZM38.3919 46.2094C36.9536 46.2094 35.7832 47.3798 35.7832 48.8181C35.7832 50.2563 36.9536 51.4268 38.3919 51.4268C39.8301 51.4268 41.0006 50.2563 41.0006 48.8181C41.0006 47.3798 39.8301 46.2094 38.3919 46.2094ZM62.6987 36.892L58.2066 37.0338L58.3849 31.8695H64.1022L63.8979 35.679C63.8527 36.3355 63.324 36.8564 62.6987 36.892ZM44.3945 35.6407L43.584 31.8695H49.2623V37.3164L44.4884 37.4668C44.538 36.8625 44.5145 36.2494 44.3945 35.6407ZM47.0875 26.2173H49.2614V30.5651H43.3023L42.238 25.6121C43.4275 25.953 45.0093 26.2173 47.0875 26.2173ZM57.0788 31.8695L56.8996 37.0747L50.5658 37.2747V31.8695H57.0788ZM57.2744 26.2173L57.124 30.5651H50.5658V26.2173H57.2744ZM64.1727 30.5651H58.4301L58.5796 26.2173H64.4066L64.1727 30.5651ZM66.73 24.0156C66.6081 23.887 66.4613 23.7846 66.2985 23.7146C66.1356 23.6446 65.9603 23.6086 65.7831 23.6086H47.0875C44.0666 23.6086 42.3727 22.9851 41.5849 22.5764L41.511 22.233C41.3808 21.639 41.0521 21.1072 40.5792 20.725C40.1063 20.3428 39.5173 20.1331 38.9093 20.1304H35.7832V22.7391L38.9597 22.7808L41.8397 36.1651C41.9447 36.7 41.9369 37.251 41.8166 37.7827C41.6964 38.3145 41.4664 38.8152 41.1414 39.2529L39.5449 41.3059C39.1931 41.7546 38.9752 42.2935 38.9164 42.8606C38.8576 43.4277 38.9604 43.9999 39.2128 44.5111C39.4615 45.0245 39.8503 45.4571 40.3344 45.759C40.8184 46.0608 41.3779 46.2197 41.9484 46.2172H62.2614V43.6085H41.9484C41.8664 43.611 41.7856 43.5892 41.716 43.5459C41.6464 43.5025 41.5911 43.4397 41.5571 43.3651C41.5192 43.2925 41.5034 43.2105 41.5115 43.129C41.5197 43.0476 41.5516 42.9703 41.6032 42.9068L43.2136 40.8364C43.3893 40.6025 43.5423 40.3546 43.684 40.1016L62.8118 39.4981C63.7675 39.4431 64.6701 39.0405 65.3497 38.3663C66.0293 37.692 66.4388 36.7925 66.5013 35.8373L67.0857 24.9834C67.0951 24.8064 67.0685 24.6293 67.0073 24.4629C66.9462 24.2965 66.8519 24.1443 66.73 24.0156Z" fill="#3BA605"/>
</svg>
