<svg width="66" height="75" viewBox="0 0 66 75" fill="none" xmlns="http://www.w3.org/2000/svg">
<path fill-rule="evenodd" clip-rule="evenodd" d="M62.0787 17.6504C62.4334 18.5963 61.9542 19.6507 61.0082 20.0056L52.5336 23.1836C48.8881 24.5506 45.7646 27.0293 43.6049 30.2687L37.6141 39.2548C34.2835 44.2507 27.5846 45.6933 22.493 42.5109C19.2901 40.5091 15.0956 41.2237 12.736 44.1732L3.25786 56.0208C2.62677 56.8098 1.47561 56.9376 0.686645 56.3065C-0.102318 55.6754 -0.230185 54.5243 0.400913 53.7353L9.87908 41.8877C13.3984 37.4885 19.6547 36.4227 24.432 39.4087C27.8456 41.5421 32.337 40.575 34.57 37.2254L40.5609 28.2393C43.1462 24.3615 46.885 21.3944 51.2489 19.7579L59.7237 16.5799C60.6696 16.2252 61.724 16.7045 62.0787 17.6504ZM60.366 43.9024C61.3763 43.9024 62.1952 44.7214 62.1952 45.7317V73.1707C62.1952 74.181 61.3763 75 60.366 75C59.3557 75 58.5367 74.181 58.5367 73.1707V45.7317C58.5367 44.7214 59.3557 43.9024 60.366 43.9024ZM45.7318 48.4756C46.7421 48.4756 47.5611 49.2946 47.5611 50.3049V73.1707C47.5611 74.181 46.7421 75 45.7318 75C44.7215 75 43.9026 74.181 43.9026 73.1707V50.3049C43.9026 49.2946 44.7215 48.4756 45.7318 48.4756ZM16.4635 53.0488C17.4738 53.0488 18.2928 53.8677 18.2928 54.8781V73.1707C18.2928 74.181 17.4738 75 16.4635 75C15.4532 75 14.6343 74.181 14.6343 73.1707V54.8781C14.6343 53.8677 15.4532 53.0488 16.4635 53.0488ZM31.0977 57.622C32.108 57.622 32.927 58.4409 32.927 59.4512V73.1707C32.927 74.181 32.108 75 31.0977 75C30.0874 75 29.2684 74.181 29.2684 73.1707V59.4512C29.2684 58.4409 30.0874 57.622 31.0977 57.622ZM1.82939 62.1951C2.83969 62.1951 3.65866 63.0141 3.65866 64.0244V73.1707C3.65866 74.181 2.83969 75 1.82939 75C0.819083 75 0.000119834 74.181 0.000119834 73.1707V64.0244C0.000119834 63.0141 0.819083 62.1951 1.82939 62.1951Z" fill="white"/>
<path d="M64.0245 6.40244C64.0245 8.92811 61.977 10.9756 59.4513 10.9756C56.9257 10.9756 54.8782 8.92811 54.8782 6.40244C54.8782 3.87677 56.9257 1.82927 59.4513 1.82927C61.977 1.82927 64.0245 3.87677 64.0245 6.40244Z" fill="white"/>
<path fill-rule="evenodd" clip-rule="evenodd" d="M59.4513 3.65854C57.936 3.65854 56.7074 4.88707 56.7074 6.40244C56.7074 7.91781 57.936 9.14634 59.4513 9.14634C60.9667 9.14634 62.1952 7.91781 62.1952 6.40244C62.1952 4.88707 60.9667 3.65854 59.4513 3.65854ZM53.0489 6.40244C53.0489 2.86646 55.9154 0 59.4513 0C62.9873 0 65.8538 2.86646 65.8538 6.40244C65.8538 9.93841 62.9873 12.8049 59.4513 12.8049C55.9154 12.8049 53.0489 9.93841 53.0489 6.40244Z" fill="white"/>
<path d="M20.1221 28.3537C20.1221 30.8793 18.0746 32.9268 15.5489 32.9268C13.0232 32.9268 10.9757 30.8793 10.9757 28.3537C10.9757 25.828 13.0232 23.7805 15.5489 23.7805C18.0746 23.7805 20.1221 25.828 20.1221 28.3537Z" fill="white"/>
<path fill-rule="evenodd" clip-rule="evenodd" d="M15.5489 25.6098C14.0335 25.6098 12.805 26.8383 12.805 28.3537C12.805 29.869 14.0335 31.0976 15.5489 31.0976C17.0643 31.0976 18.2928 29.869 18.2928 28.3537C18.2928 26.8383 17.0643 25.6098 15.5489 25.6098ZM9.14646 28.3537C9.14646 24.8177 12.0129 21.9512 15.5489 21.9512C19.0849 21.9512 21.9513 24.8177 21.9513 28.3537C21.9513 31.8896 19.0849 34.7561 15.5489 34.7561C12.0129 34.7561 9.14646 31.8896 9.14646 28.3537Z" fill="white"/>
</svg>
