<svg width="100" height="114" viewBox="0 0 100 114" fill="none" xmlns="http://www.w3.org/2000/svg">
<path fill-rule="evenodd" clip-rule="evenodd" d="M94.2675 26.8024C94.8061 28.2388 94.0783 29.8399 92.642 30.3788L79.7731 35.2047C74.2373 37.2805 69.4942 41.0444 66.2148 45.9635L57.1176 59.6091C52.0601 67.1954 41.8876 69.386 34.156 64.5535C29.2924 61.5138 22.9229 62.5988 19.3399 67.0777L4.94712 85.0685C3.98879 86.2665 2.24073 86.4607 1.04268 85.5023C-0.155372 84.544 -0.34954 82.796 0.608792 81.5979L15.0015 63.6071C20.3457 56.9268 29.846 55.3085 37.1004 59.8427C42.284 63.0824 49.1043 61.6138 52.4951 56.5274L61.5923 42.8819C65.5181 36.9933 71.1956 32.4877 77.8223 30.0027L90.6914 25.1769C92.1278 24.6383 93.7289 25.3661 94.2675 26.8024ZM91.6667 66.6665C93.2008 66.6665 94.4445 67.9102 94.4445 69.4443V111.111C94.4445 112.645 93.2008 113.889 91.6667 113.889C90.1325 113.889 88.8889 112.645 88.8889 111.111V69.4443C88.8889 67.9102 90.1325 66.6665 91.6667 66.6665ZM69.4445 73.611C70.9787 73.611 72.2223 74.8546 72.2223 76.3887V111.111C72.2223 112.645 70.9787 113.889 69.4445 113.889C67.9103 113.889 66.6667 112.645 66.6667 111.111V76.3887C66.6667 74.8546 67.9103 73.611 69.4445 73.611ZM25.0001 80.5554C26.5343 80.5554 27.7779 81.799 27.7779 83.3332V111.111C27.7779 112.645 26.5343 113.889 25.0001 113.889C23.466 113.889 22.2224 112.645 22.2224 111.111V83.3332C22.2224 81.799 23.466 80.5554 25.0001 80.5554ZM47.2223 87.4998C48.7565 87.4998 50.0001 88.7434 50.0001 90.2776V111.111C50.0001 112.645 48.7565 113.889 47.2223 113.889C45.6882 113.889 44.4445 112.645 44.4445 111.111V90.2776C44.4445 88.7434 45.6882 87.4998 47.2223 87.4998ZM2.77795 94.4443C4.31212 94.4443 5.55573 95.6879 5.55573 97.222V111.111C5.55573 112.645 4.31212 113.889 2.77795 113.889C1.24379 113.889 0.00018197 112.645 0.00018197 111.111V97.222C0.00018197 95.6879 1.24379 94.4443 2.77795 94.4443Z" fill="#3BA605"/>
<path d="M97.2222 9.7222C97.2222 13.5575 94.1131 16.6666 90.2778 16.6666C86.4425 16.6666 83.3334 13.5575 83.3334 9.7222C83.3334 5.88693 86.4425 2.77777 90.2778 2.77777C94.1131 2.77777 97.2222 5.88693 97.2222 9.7222Z" fill="#3BA605"/>
<path fill-rule="evenodd" clip-rule="evenodd" d="M90.2778 5.55555C87.9767 5.55555 86.1111 7.4211 86.1111 9.7222C86.1111 12.0233 87.9767 13.8889 90.2778 13.8889C92.5789 13.8889 94.4445 12.0233 94.4445 9.7222C94.4445 7.4211 92.5789 5.55555 90.2778 5.55555ZM80.5556 9.7222C80.5556 4.35277 84.9084 0 90.2778 0C95.6472 0 100 4.35277 100 9.7222C100 15.0916 95.6472 19.4444 90.2778 19.4444C84.9084 19.4444 80.5556 15.0916 80.5556 9.7222Z" fill="#3BA605"/>
<path d="M30.5557 43.0555C30.5557 46.8907 27.4465 49.9999 23.6112 49.9999C19.776 49.9999 16.6668 46.8907 16.6668 43.0555C16.6668 39.2202 19.776 36.111 23.6112 36.111C27.4465 36.111 30.5557 39.2202 30.5557 43.0555Z" fill="#3BA605"/>
<path fill-rule="evenodd" clip-rule="evenodd" d="M23.6112 38.8888C21.3101 38.8888 19.4446 40.7544 19.4446 43.0555C19.4446 45.3566 21.3101 47.2221 23.6112 47.2221C25.9124 47.2221 27.7779 45.3566 27.7779 43.0555C27.7779 40.7544 25.9124 38.8888 23.6112 38.8888ZM13.889 43.0555C13.889 37.686 18.2418 33.3333 23.6112 33.3333C28.9807 33.3333 33.3335 37.686 33.3335 43.0555C33.3335 48.4249 28.9807 52.7777 23.6112 52.7777C18.2418 52.7777 13.889 48.4249 13.889 43.0555Z" fill="#3BA605"/>
</svg>
