<svg width="71" height="75" viewBox="0 0 71 75" fill="none" xmlns="http://www.w3.org/2000/svg">
<path fill-rule="evenodd" clip-rule="evenodd" d="M14.4368 23.4108C14.9197 20.5445 17.6347 18.6121 20.5011 19.095L49.4646 23.9732C52.3311 24.4559 54.2634 27.1711 53.7805 30.0374L51.2912 44.8172C50.8084 47.6837 48.0934 49.6159 45.2271 49.1332L40.7711 48.3826C39.9466 48.2438 39.1051 48.505 38.5042 49.0864L35.5678 51.9276C32.5234 54.8732 27.4854 52.2222 28.1889 48.045C28.35 47.0883 27.7051 46.182 26.7483 46.0208L16.2636 44.2549C13.3971 43.7721 11.4647 41.0571 11.9476 38.1907L14.4368 23.4108ZM20.0641 21.69C18.6308 21.4486 17.2733 22.4147 17.032 23.8479L14.5426 38.6278C14.3012 40.0611 15.2674 41.4186 16.7005 41.6599L27.1854 43.4258C29.5754 43.8284 31.1864 46.0921 30.7839 48.4821C30.5022 50.1543 32.5191 51.2155 33.7379 50.0363L36.6743 47.1953C37.8762 46.0324 39.5591 45.5099 41.2082 45.7876L45.6641 46.5382C47.0974 46.7795 48.4549 45.8134 48.6962 44.3801L51.1855 29.6003C51.427 28.1671 50.4608 26.8096 49.0276 26.5682L20.0641 21.69Z" fill="white"/>
<path fill-rule="evenodd" clip-rule="evenodd" d="M30.7176 30.2291C29.6787 29.5163 28.6789 29.3917 28.1008 29.7074C26.9067 30.3593 26.4183 31.7154 26.8995 33.5909C27.3805 35.4657 28.8024 37.5192 30.89 38.8401L30.8975 38.8449C31.4707 39.2129 31.8097 39.353 32.1075 39.4059C32.4026 39.4584 32.7858 39.4476 33.4787 39.2799L33.4879 39.2776C35.8932 38.7133 37.9092 37.2388 38.9778 35.6251C40.0467 34.0107 40.0295 32.5695 39.1146 31.5624C38.672 31.0749 37.6836 30.8642 36.4641 31.1974C35.9 31.3516 35.4195 31.5942 35.1029 31.8441C34.8397 32.0517 34.7889 32.1792 34.7825 32.1913C34.7239 32.9029 34.1066 33.4403 33.3905 33.3963C33.3054 33.3911 33.2226 33.3779 33.143 33.3574C33.0611 33.3507 32.9786 33.3361 32.8964 33.313C32.2053 33.12 31.7979 32.4097 31.9761 31.718C31.9739 31.705 31.9686 31.5679 31.7878 31.2843C31.5714 30.945 31.1986 30.5589 30.7176 30.2291ZM33.7855 29.5501C33.3642 28.9872 32.8122 28.4747 32.2064 28.0591C30.8466 27.1262 28.713 26.3749 26.8399 27.3976C24.2049 28.8362 23.6946 31.6888 24.3505 34.2449C25.0062 36.8005 26.8557 39.4003 29.4793 41.0616C30.1696 41.5045 30.8511 41.8554 31.647 41.9968C32.4457 42.1388 33.2297 42.0474 34.0936 41.8386C37.1164 41.1282 39.7153 39.2778 41.1718 37.078C42.6288 34.8778 43.0811 32.0154 41.0626 29.793C39.6276 28.213 37.3626 28.2238 35.7705 28.6588C35.0604 28.8529 34.3692 29.1562 33.7855 29.5501Z" fill="white"/>
<path fill-rule="evenodd" clip-rule="evenodd" d="M59.2105 10.5263C61.3907 10.5263 63.1579 8.75901 63.1579 6.57895C63.1579 4.39888 61.3907 2.63158 59.2105 2.63158C57.0304 2.63158 55.2632 4.39888 55.2632 6.57895C55.2632 8.75901 57.0304 10.5263 59.2105 10.5263ZM59.2105 13.1579C62.8439 13.1579 65.7895 10.2124 65.7895 6.57895C65.7895 2.9455 62.8439 0 59.2105 0C55.5771 0 52.6316 2.9455 52.6316 6.57895C52.6316 10.2124 55.5771 13.1579 59.2105 13.1579Z" fill="white"/>
<path fill-rule="evenodd" clip-rule="evenodd" d="M52.6316 16.4474C51.1782 16.4474 50 17.6255 50 19.0789V19.7368C50 20.4636 49.4109 21.0526 48.6842 21.0526C47.9575 21.0526 47.3684 20.4636 47.3684 19.7368V19.0789C47.3684 16.1722 49.7249 13.8158 52.6316 13.8158H65.1316C68.0383 13.8158 70.3947 16.1722 70.3947 19.0789V19.7368C70.3947 20.4636 69.8057 21.0526 69.0789 21.0526C68.3522 21.0526 67.7632 20.4636 67.7632 19.7368V19.0789C67.7632 17.6255 66.585 16.4474 65.1316 16.4474H52.6316Z" fill="white"/>
<path fill-rule="evenodd" clip-rule="evenodd" d="M59.2105 64.4737C61.3907 64.4737 63.1579 62.7064 63.1579 60.5263C63.1579 58.3462 61.3907 56.5789 59.2105 56.5789C57.0304 56.5789 55.2632 58.3462 55.2632 60.5263C55.2632 62.7064 57.0304 64.4737 59.2105 64.4737ZM59.2105 67.1053C62.8439 67.1053 65.7895 64.1597 65.7895 60.5263C65.7895 56.8929 62.8439 53.9474 59.2105 53.9474C55.5771 53.9474 52.6316 56.8929 52.6316 60.5263C52.6316 64.1597 55.5771 67.1053 59.2105 67.1053Z" fill="white"/>
<path fill-rule="evenodd" clip-rule="evenodd" d="M52.6316 70.3947C51.1782 70.3947 50 71.5729 50 73.0263V73.6842C50 74.4109 49.4109 75 48.6842 75C47.9575 75 47.3684 74.4109 47.3684 73.6842V73.0263C47.3684 70.1196 49.7249 67.7632 52.6316 67.7632H65.1316C68.0383 67.7632 70.3947 70.1196 70.3947 73.0263V73.6842C70.3947 74.4109 69.8057 75 69.0789 75C68.3522 75 67.7632 74.4109 67.7632 73.6842V73.0263C67.7632 71.5729 66.585 70.3947 65.1316 70.3947H52.6316Z" fill="white"/>
<path fill-rule="evenodd" clip-rule="evenodd" d="M35.5263 64.4737C37.7064 64.4737 39.4737 62.7064 39.4737 60.5263C39.4737 58.3462 37.7064 56.5789 35.5263 56.5789C33.3462 56.5789 31.5789 58.3462 31.5789 60.5263C31.5789 62.7064 33.3462 64.4737 35.5263 64.4737ZM35.5263 67.1053C39.1597 67.1053 42.1053 64.1597 42.1053 60.5263C42.1053 56.8929 39.1597 53.9474 35.5263 53.9474C31.8929 53.9474 28.9474 56.8929 28.9474 60.5263C28.9474 64.1597 31.8929 67.1053 35.5263 67.1053Z" fill="white"/>
<path fill-rule="evenodd" clip-rule="evenodd" d="M28.9474 70.3947C27.4939 70.3947 26.3158 71.5729 26.3158 73.0263V73.6842C26.3158 74.4109 25.7267 75 25 75C24.2733 75 23.6842 74.4109 23.6842 73.6842V73.0263C23.6842 70.1196 26.0407 67.7632 28.9474 67.7632H41.4474C44.3541 67.7632 46.7105 70.1196 46.7105 73.0263V73.6842C46.7105 74.4109 46.1214 75 45.3947 75C44.668 75 44.0789 74.4109 44.0789 73.6842V73.0263C44.0789 71.5729 42.9008 70.3947 41.4474 70.3947H28.9474Z" fill="white"/>
<path fill-rule="evenodd" clip-rule="evenodd" d="M11.8421 64.4737C14.0222 64.4737 15.7895 62.7064 15.7895 60.5263C15.7895 58.3462 14.0222 56.5789 11.8421 56.5789C9.66197 56.5789 7.89474 58.3462 7.89474 60.5263C7.89474 62.7064 9.66197 64.4737 11.8421 64.4737ZM11.8421 67.1053C15.4755 67.1053 18.4211 64.1597 18.4211 60.5263C18.4211 56.8929 15.4755 53.9474 11.8421 53.9474C8.20868 53.9474 5.26316 56.8929 5.26316 60.5263C5.26316 64.1597 8.20868 67.1053 11.8421 67.1053Z" fill="white"/>
<path fill-rule="evenodd" clip-rule="evenodd" d="M5.26316 70.3947C3.80978 70.3947 2.63158 71.5729 2.63158 73.0263V73.6842C2.63158 74.4109 2.04247 75 1.31579 75C0.589105 75 0 74.4109 0 73.6842V73.0263C0 70.1196 2.35639 67.7632 5.26316 67.7632H17.7632C20.6699 67.7632 23.0263 70.1196 23.0263 73.0263V73.6842C23.0263 74.4109 22.4372 75 21.7105 75C20.9838 75 20.3947 74.4109 20.3947 73.6842V73.0263C20.3947 71.5729 19.2166 70.3947 17.7632 70.3947H5.26316Z" fill="white"/>
</svg>
