<svg width="100" height="107" viewBox="0 0 100 107" fill="none" xmlns="http://www.w3.org/2000/svg">
<path fill-rule="evenodd" clip-rule="evenodd" d="M20.5084 33.2564C21.1944 29.1847 25.0512 26.4396 29.123 27.1256L70.2675 34.0553C74.3394 34.7411 77.0845 38.5981 76.3985 42.6699L72.8622 63.6656C72.1764 67.7376 68.3196 70.4824 64.2478 69.7966L57.9178 68.7305C56.7465 68.5333 55.5512 68.9043 54.6976 69.7303L50.5262 73.7664C46.2015 77.9507 39.0447 74.1849 40.0441 68.2508C40.2729 66.8918 39.3568 65.6043 37.9976 65.3753L23.1034 62.8667C19.0314 62.1809 16.2864 58.3241 16.9723 54.2522L20.5084 33.2564ZM28.5022 30.812C26.4662 30.469 24.5378 31.8415 24.195 33.8774L20.6587 54.8731C20.3157 56.9092 21.6882 58.8376 23.7241 59.1804L38.6185 61.689C42.0136 62.2609 44.3022 65.4766 43.7305 68.8718C43.3303 71.2473 46.1953 72.7548 47.9267 71.0796L52.0981 67.0437C53.8054 65.3918 56.1961 64.6495 58.5387 65.0441L64.8686 66.1103C66.9047 66.4531 68.8331 65.0807 69.1759 63.0447L72.7122 42.049C73.0551 40.0131 71.6826 38.0847 69.6467 37.7417L28.5022 30.812Z" fill="#3BA605"/>
<path fill-rule="evenodd" clip-rule="evenodd" d="M43.6363 42.9422C42.1604 41.9297 40.7402 41.7527 39.9189 42.2011C38.2226 43.1273 37.5288 45.0536 38.2123 47.7179C38.8957 50.3811 40.9155 53.2983 43.8811 55.1748L43.8918 55.1815C44.706 55.7043 45.1877 55.9034 45.6107 55.9785C46.0299 56.0531 46.5742 56.0378 47.5585 55.7994L47.5716 55.7963C50.9884 54.9946 53.8523 52.9 55.3703 50.6077C56.8888 48.3142 56.8643 46.2669 55.5647 44.8363C54.9359 44.1437 53.5318 43.8445 51.7994 44.3178C50.9981 44.5368 50.3155 44.8815 49.8658 45.2364C49.492 45.5314 49.4198 45.7125 49.4107 45.7297C49.3275 46.7406 48.4505 47.5039 47.4333 47.4415C47.3123 47.434 47.1948 47.4153 47.0817 47.3862C46.9652 47.3766 46.848 47.3559 46.7314 47.3232C45.7495 47.049 45.1708 46.04 45.4239 45.0574C45.4209 45.0389 45.4133 44.8441 45.1564 44.4413C44.8492 43.9593 44.3194 43.4108 43.6363 42.9422ZM47.9944 41.9778C47.3959 41.1781 46.6118 40.4501 45.7512 39.8596C43.8194 38.5344 40.7886 37.4671 38.1277 38.92C34.3845 40.9636 33.6596 45.0159 34.5914 48.6469C35.5228 52.2774 38.1501 55.9705 41.8772 58.3305C42.8578 58.9596 43.8258 59.4581 44.9564 59.6591C46.091 59.8607 47.2049 59.7308 48.432 59.4342C52.7262 58.425 56.4179 55.7964 58.4871 52.6716C60.5568 49.546 61.1993 45.4798 58.332 42.3228C56.2935 40.0783 53.0759 40.0936 50.8142 40.7116C49.8054 40.9873 48.8236 41.4181 47.9944 41.9778Z" fill="#3BA605"/>
<path fill-rule="evenodd" clip-rule="evenodd" d="M84.1122 14.9533C87.2092 14.9533 89.7196 12.4427 89.7196 9.34579C89.7196 6.24888 87.2092 3.73832 84.1122 3.73832C81.0151 3.73832 78.5047 6.24888 78.5047 9.34579C78.5047 12.4427 81.0151 14.9533 84.1122 14.9533ZM84.1122 18.6916C89.2736 18.6916 93.4579 14.5073 93.4579 9.34579C93.4579 4.18426 89.2736 0 84.1122 0C78.9507 0 74.7664 4.18426 74.7664 9.34579C74.7664 14.5073 78.9507 18.6916 84.1122 18.6916Z" fill="#3BA605"/>
<path fill-rule="evenodd" clip-rule="evenodd" d="M74.7664 23.3645C72.7017 23.3645 71.028 25.0381 71.028 27.1028V28.0374C71.028 29.0697 70.1912 29.9065 69.1589 29.9065C68.1265 29.9065 67.2897 29.0697 67.2897 28.0374V27.1028C67.2897 22.9736 70.6372 19.6262 74.7664 19.6262H92.5234C96.6525 19.6262 100 22.9736 100 27.1028V28.0374C100 29.0697 99.1632 29.9065 98.1308 29.9065C97.0985 29.9065 96.2617 29.0697 96.2617 28.0374V27.1028C96.2617 25.0381 94.588 23.3645 92.5234 23.3645H74.7664Z" fill="#3BA605"/>
<path fill-rule="evenodd" clip-rule="evenodd" d="M84.1122 91.5888C87.2092 91.5888 89.7196 89.0783 89.7196 85.9813C89.7196 82.8843 87.2092 80.3738 84.1122 80.3738C81.0151 80.3738 78.5047 82.8843 78.5047 85.9813C78.5047 89.0783 81.0151 91.5888 84.1122 91.5888ZM84.1122 95.3271C89.2736 95.3271 93.4579 91.1428 93.4579 85.9813C93.4579 80.8198 89.2736 76.6355 84.1122 76.6355C78.9507 76.6355 74.7664 80.8198 74.7664 85.9813C74.7664 91.1428 78.9507 95.3271 84.1122 95.3271Z" fill="#3BA605"/>
<path fill-rule="evenodd" clip-rule="evenodd" d="M74.7664 100C72.7017 100 71.028 101.674 71.028 103.738V104.673C71.028 105.705 70.1912 106.542 69.1589 106.542C68.1265 106.542 67.2897 105.705 67.2897 104.673V103.738C67.2897 99.6092 70.6372 96.2617 74.7664 96.2617H92.5234C96.6525 96.2617 100 99.6092 100 103.738V104.673C100 105.705 99.1632 106.542 98.1308 106.542C97.0985 106.542 96.2617 105.705 96.2617 104.673V103.738C96.2617 101.674 94.588 100 92.5234 100H74.7664Z" fill="#3BA605"/>
<path fill-rule="evenodd" clip-rule="evenodd" d="M50.4673 91.5888C53.5643 91.5888 56.0748 89.0783 56.0748 85.9813C56.0748 82.8843 53.5643 80.3738 50.4673 80.3738C47.3703 80.3738 44.8598 82.8843 44.8598 85.9813C44.8598 89.0783 47.3703 91.5888 50.4673 91.5888ZM50.4673 95.3271C55.6288 95.3271 59.8131 91.1428 59.8131 85.9813C59.8131 80.8198 55.6288 76.6355 50.4673 76.6355C45.3058 76.6355 41.1215 80.8198 41.1215 85.9813C41.1215 91.1428 45.3058 95.3271 50.4673 95.3271Z" fill="#3BA605"/>
<path fill-rule="evenodd" clip-rule="evenodd" d="M41.1215 100C39.0568 100 37.3832 101.674 37.3832 103.738V104.673C37.3832 105.705 36.5464 106.542 35.514 106.542C34.4817 106.542 33.6449 105.705 33.6449 104.673V103.738C33.6449 99.6092 36.9923 96.2617 41.1215 96.2617H58.8785C63.0077 96.2617 66.3551 99.6092 66.3551 103.738V104.673C66.3551 105.705 65.5183 106.542 64.486 106.542C63.4536 106.542 62.6168 105.705 62.6168 104.673V103.738C62.6168 101.674 60.9432 100 58.8785 100H41.1215Z" fill="#3BA605"/>
<path fill-rule="evenodd" clip-rule="evenodd" d="M16.8224 91.5888C19.9194 91.5888 22.4299 89.0783 22.4299 85.9813C22.4299 82.8843 19.9194 80.3738 16.8224 80.3738C13.7254 80.3738 11.215 82.8843 11.215 85.9813C11.215 89.0783 13.7254 91.5888 16.8224 91.5888ZM16.8224 95.3271C21.9839 95.3271 26.1682 91.1428 26.1682 85.9813C26.1682 80.8198 21.9839 76.6355 16.8224 76.6355C11.6609 76.6355 7.47664 80.8198 7.47664 85.9813C7.47664 91.1428 11.6609 95.3271 16.8224 95.3271Z" fill="#3BA605"/>
<path fill-rule="evenodd" clip-rule="evenodd" d="M7.47664 100C5.41202 100 3.73832 101.674 3.73832 103.738V104.673C3.73832 105.705 2.90146 106.542 1.86916 106.542C0.83686 106.542 0 105.705 0 104.673V103.738C0 99.6092 3.3474 96.2617 7.47664 96.2617H25.2336C29.3628 96.2617 32.7103 99.6092 32.7103 103.738V104.673C32.7103 105.705 31.8735 106.542 30.8411 106.542C29.8088 106.542 28.972 105.705 28.972 104.673V103.738C28.972 101.674 27.2983 100 25.2336 100H7.47664Z" fill="#3BA605"/>
</svg>
