<svg width="75" height="75" viewBox="0 0 75 75" fill="none" xmlns="http://www.w3.org/2000/svg">
<path d="M73.683 75C74.4104 75 75 74.4104 75 73.683V1.31703C75 0.589626 74.4104 0 73.683 0H59.2078C58.4803 0 57.8907 0.589626 57.8907 1.31703V15.2452L46.1043 27.0316L46.2826 15.8105C46.2907 15.2756 45.9746 14.7893 45.4822 14.5806C44.9878 14.3719 44.4225 14.4772 44.0396 14.8541L31.548 27.1512L31.4264 15.7781C31.4204 15.2452 31.0962 14.771 30.6038 14.5704C30.1114 14.3698 29.5461 14.4853 29.1733 14.8663L17.0627 27.1066L16.9046 15.774C16.8965 15.2411 16.5703 14.767 16.0779 14.5684C15.5896 14.3719 15.0223 14.4853 14.6495 14.8663L0.380926 29.3395C0.137781 29.5846 0 29.9169 0 30.2634V73.683C0 74.4104 0.589626 75 1.31703 75H59.2078H73.683ZM60.5268 2.63407H72.3659V72.3639H60.5268V15.7902V2.63407ZM2.63609 30.8024L14.3172 18.9552L14.4752 30.2796C14.4833 30.8105 14.8095 31.2846 15.2999 31.4832C15.7902 31.6838 16.3555 31.5663 16.7284 31.1874L28.8268 18.9592L28.9484 30.2756C28.9545 30.8044 29.2746 31.2765 29.7629 31.4791C30.2492 31.6838 30.8125 31.5723 31.1894 31.1995L43.5979 18.9835L43.4196 30.2431C43.4115 30.7801 43.7296 31.2664 44.2219 31.4751C44.7163 31.6818 45.2857 31.5744 45.6686 31.1934L57.8907 18.9693V72.3639H2.63609V30.8024ZM27.834 33.6917H20.6511C19.9237 33.6917 19.3341 34.2814 19.3341 35.0088V42.1917C19.3341 42.9191 19.9237 43.5087 20.6511 43.5087H27.834C28.5614 43.5087 29.151 42.9191 29.151 42.1917V35.0088C29.153 34.2814 28.5634 33.6917 27.834 33.6917ZM26.517 40.8746H21.9701V36.3278H26.517V40.8746ZM14.5765 33.6917H7.39565C6.66824 33.6917 6.07862 34.2814 6.07862 35.0088V42.1917C6.07862 42.9191 6.66824 43.5087 7.39565 43.5087H14.5765C15.3039 43.5087 15.8936 42.9191 15.8936 42.1917V35.0088C15.8936 34.2814 15.3039 33.6917 14.5765 33.6917ZM13.2575 40.8746H8.71268V36.3278H13.2575V40.8746ZM54.3489 33.6917H47.166C46.4386 33.6917 45.849 34.2814 45.849 35.0088V42.1917C45.849 42.9191 46.4386 43.5087 47.166 43.5087H54.3489C55.0763 43.5087 55.6659 42.9191 55.6659 42.1917V35.0088C55.668 34.2814 55.0783 33.6917 54.3489 33.6917ZM53.0319 40.8746H48.4851V36.3278H53.0319V40.8746ZM41.0914 33.6917H33.9085C33.1811 33.6917 32.5915 34.2814 32.5915 35.0088V42.1917C32.5915 42.9191 33.1811 43.5087 33.9085 43.5087H41.0914C41.8189 43.5087 42.4085 42.9191 42.4085 42.1917V35.0088C42.4105 34.2814 41.8209 33.6917 41.0914 33.6917ZM39.7744 40.8746H35.2276V36.3278H39.7744V40.8746Z" fill="white"/>
</svg>
