<svg width="100" height="100" viewBox="0 0 100 100" fill="none" xmlns="http://www.w3.org/2000/svg">
<path d="M98.2439 100C99.2138 100 100 99.2138 100 98.244V1.75605C100 0.786168 99.2138 0 98.2439 0H78.9437C77.9738 0 77.1876 0.786168 77.1876 1.75605V20.3269L61.4724 36.0421L61.7101 21.0806C61.7209 20.3674 61.2995 19.719 60.643 19.4408C59.9838 19.1625 59.23 19.303 58.7194 19.8055L42.064 36.2015L41.9019 21.0374C41.8938 20.3269 41.4616 19.6947 40.8051 19.4273C40.1486 19.1598 39.3948 19.3138 38.8977 19.8217L22.7502 36.1421L22.5395 21.032C22.5287 20.3215 22.0937 19.6893 21.4373 19.4246C20.7862 19.1625 20.0297 19.3138 19.5326 19.8217L0.507901 39.1193C0.183709 39.4462 0 39.8892 0 40.3512V98.244C0 99.2138 0.786168 100 1.75605 100H78.9437H98.2439ZM80.7024 3.51209H96.4879V96.4852H80.7024V21.0536V3.51209ZM3.51479 41.0698L19.0896 25.2735L19.3003 40.3728C19.3111 41.0806 19.746 41.7128 20.3998 41.9776C21.0536 42.245 21.8074 42.0883 22.3045 41.5831L38.4358 25.2789L38.5979 40.3674C38.606 41.0725 39.0328 41.702 39.6839 41.9722C40.3323 42.245 41.0833 42.0965 41.5858 41.5994L58.1305 25.3114L57.8927 40.3242C57.8819 41.0401 58.3061 41.6885 58.9626 41.9668C59.6218 42.2423 60.3809 42.0992 60.8915 41.5912L77.1876 25.2924V96.4852H3.51479V41.0698ZM37.112 44.9223H27.5348C26.5649 44.9223 25.7787 45.7085 25.7787 46.6784V56.2556C25.7787 57.2254 26.5649 58.0116 27.5348 58.0116H37.112C38.0819 58.0116 38.868 57.2254 38.868 56.2556V46.6784C38.8707 45.7085 38.0846 44.9223 37.112 44.9223ZM35.3559 54.4995H29.2935V48.4371H35.3559V54.4995ZM19.4354 44.9223H9.86087C8.89099 44.9223 8.10482 45.7085 8.10482 46.6784V56.2556C8.10482 57.2254 8.89099 58.0116 9.86087 58.0116H19.4354C20.4052 58.0116 21.1914 57.2254 21.1914 56.2556V46.6784C21.1914 45.7085 20.4052 44.9223 19.4354 44.9223ZM17.6766 54.4995H11.6169V48.4371H17.6766V54.4995ZM72.4652 44.9223H62.888C61.9181 44.9223 61.132 45.7085 61.132 46.6784V56.2556C61.132 57.2254 61.9181 58.0116 62.888 58.0116H72.4652C73.4351 58.0116 74.2213 57.2254 74.2213 56.2556V46.6784C74.224 45.7085 73.4378 44.9223 72.4652 44.9223ZM70.7092 54.4995H64.6468V48.4371H70.7092V54.4995ZM54.7886 44.9223H45.2114C44.2415 44.9223 43.4554 45.7085 43.4554 46.6784V56.2556C43.4554 57.2254 44.2415 58.0116 45.2114 58.0116H54.7886C55.7585 58.0116 56.5446 57.2254 56.5446 56.2556V46.6784C56.5473 45.7085 55.7612 44.9223 54.7886 44.9223ZM53.0326 54.4995H46.9701V48.4371H53.0326V54.4995Z" fill="#3BA605"/>
</svg>
