<svg width="40" height="74" viewBox="0 0 40 74" fill="none" xmlns="http://www.w3.org/2000/svg">
<path d="M0.843932 38.6442L35.1009 72.4388C36.2233 73.5454 38.0405 73.5435 39.161 72.4331C40.2807 71.3228 40.2778 69.5241 39.1552 68.4167L6.9373 36.6335L39.1564 4.85049C40.2788 3.7429 40.2817 1.94542 39.1622 0.834961C38.6005 0.278305 37.8646 -2.30739e-05 37.1287 -2.31378e-05C36.3948 -2.32017e-05 35.6618 0.276443 35.1011 0.829238L0.843933 34.623C0.303352 35.155 3.28636e-06 35.8791 3.22005e-06 36.6335C3.15374e-06 37.3879 0.304221 38.1112 0.843932 38.6442Z" fill="white"/>
</svg>
