<svg width="121" height="75" viewBox="0 0 121 75" fill="none" xmlns="http://www.w3.org/2000/svg">
<path fill-rule="evenodd" clip-rule="evenodd" d="M13.2962 70.9089C17.2503 70.9089 20.4557 67.7034 20.4557 63.7493C20.4557 59.7953 17.2503 56.5898 13.2962 56.5898C9.34213 56.5898 6.13672 59.7953 6.13672 63.7493C6.13672 67.7034 9.34213 70.9089 13.2962 70.9089ZM13.2962 75C19.5099 75 24.5469 69.9628 24.5469 63.7493C24.5469 57.5357 19.5099 52.4987 13.2962 52.4987C7.08265 52.4987 2.04557 57.5357 2.04557 63.7493C2.04557 69.9628 7.08265 75 13.2962 75Z" fill="white"/>
<path fill-rule="evenodd" clip-rule="evenodd" d="M13.2962 66.8177C14.9908 66.8177 16.3646 65.4439 16.3646 63.7493C16.3646 62.0548 14.9908 60.681 13.2962 60.681C11.6016 60.681 10.2279 62.0548 10.2279 63.7493C10.2279 65.4439 11.6016 66.8177 13.2962 66.8177ZM13.2962 68.8633C16.1206 68.8633 18.4102 66.5737 18.4102 63.7493C18.4102 60.925 16.1206 58.6354 13.2962 58.6354C10.4719 58.6354 8.18229 60.925 8.18229 63.7493C8.18229 66.5737 10.4719 68.8633 13.2962 68.8633Z" fill="white"/>
<path fill-rule="evenodd" clip-rule="evenodd" d="M39.8887 66.8177C41.5832 66.8177 42.957 65.4439 42.957 63.7493C42.957 62.0548 41.5832 60.681 39.8887 60.681C38.1941 60.681 36.8203 62.0548 36.8203 63.7493C36.8203 65.4439 38.1941 66.8177 39.8887 66.8177ZM39.8887 68.8633C42.713 68.8633 45.0026 66.5737 45.0026 63.7493C45.0026 60.925 42.713 58.6354 39.8887 58.6354C37.0643 58.6354 34.7747 60.925 34.7747 63.7493C34.7747 66.5737 37.0643 68.8633 39.8887 68.8633Z" fill="white"/>
<path fill-rule="evenodd" clip-rule="evenodd" d="M105.347 66.8177C107.042 66.8177 108.415 65.4439 108.415 63.7493C108.415 62.0548 107.042 60.681 105.347 60.681C103.652 60.681 102.279 62.0548 102.279 63.7493C102.279 65.4439 103.652 66.8177 105.347 66.8177ZM105.347 68.8633C108.171 68.8633 110.461 66.5737 110.461 63.7493C110.461 60.925 108.171 58.6354 105.347 58.6354C102.523 58.6354 100.233 60.925 100.233 63.7493C100.233 66.5737 102.523 68.8633 105.347 68.8633Z" fill="white"/>
<path fill-rule="evenodd" clip-rule="evenodd" d="M39.8887 70.9089C43.8428 70.9089 47.0482 67.7034 47.0482 63.7493C47.0482 59.7953 43.8428 56.5898 39.8887 56.5898C35.9346 56.5898 32.7292 59.7953 32.7292 63.7493C32.7292 67.7034 35.9346 70.9089 39.8887 70.9089ZM39.8887 75C46.1023 75 51.1393 69.9628 51.1393 63.7493C51.1393 57.5357 46.1023 52.4987 39.8887 52.4987C33.675 52.4987 28.638 57.5357 28.638 63.7493C28.638 69.9628 33.675 75 39.8887 75Z" fill="white"/>
<path fill-rule="evenodd" clip-rule="evenodd" d="M105.347 70.9089C109.301 70.9089 112.506 67.7034 112.506 63.7493C112.506 59.7953 109.301 56.5898 105.347 56.5898C101.393 56.5898 98.1875 59.7953 98.1875 63.7493C98.1875 67.7034 101.393 70.9089 105.347 70.9089ZM105.347 75C111.561 75 116.598 69.9628 116.598 63.7493C116.598 57.5357 111.561 52.4987 105.347 52.4987C99.1334 52.4987 94.0963 57.5357 94.0963 63.7493C94.0963 69.9628 99.1334 75 105.347 75Z" fill="white"/>
<path fill-rule="evenodd" clip-rule="evenodd" d="M55.2305 54.5443C56.3602 54.5443 57.276 55.4601 57.276 56.5898V63.7493H87.9596V56.5898C87.9596 55.4601 88.8754 54.5443 90.0052 54.5443C91.135 54.5443 92.0508 55.4601 92.0508 56.5898V63.7493C92.0508 66.0087 90.2192 67.8405 87.9596 67.8405H57.276C55.0165 67.8405 53.1849 66.0087 53.1849 63.7493V56.5898C53.1849 55.4601 54.1007 54.5443 55.2305 54.5443Z" fill="white"/>
<path fill-rule="evenodd" clip-rule="evenodd" d="M87.9596 4.17588V48.2093C87.9596 50.4688 86.128 52.3004 83.8685 52.3004H2.04557C0.915844 52.3004 0 51.3846 0 50.2549C0 49.1251 0.915844 48.2093 2.04557 48.2093H83.8685V4.02062C83.8685 1.39799 86.4258 -0.75763 89.1561 0.255133C91.3189 1.0572 93.8869 2.25243 96.1969 3.84348C98.4837 5.41836 100.683 7.49503 101.863 10.1189C101.995 10.4126 102.259 10.5939 102.478 10.6295C106.171 11.2296 109.67 13.3509 111.5 14.7276C112.298 15.3277 112.785 16.1818 112.974 17.0618L115.056 26.7637C115.092 26.9353 115.382 27.3813 116.089 27.9139C117.333 28.8504 119.006 30.5576 119.638 32.4508C119.901 33.2406 120.07 34.6692 120.2 36.1774C120.339 37.7912 120.453 39.7983 120.536 41.9406C120.702 46.2187 120.746 51.1242 120.6 54.6293C120.553 55.7581 119.6 56.6348 118.471 56.5877C117.342 56.5407 116.466 55.5875 116.513 54.4587C116.653 51.1011 116.612 46.3132 116.448 42.099C116.366 39.9951 116.255 38.0563 116.124 36.528C116.058 35.7628 115.989 35.1176 115.918 34.6144C115.883 34.363 115.849 34.1595 115.817 34.002C115.802 33.9236 115.788 33.8625 115.776 33.8164C115.771 33.7937 115.766 33.7765 115.763 33.7641C115.759 33.7516 115.757 33.7461 115.757 33.7461C115.504 32.9865 114.58 31.8985 113.628 31.1819C112.795 30.5546 111.423 29.3362 111.056 27.622L108.981 17.9518C107.378 16.758 104.542 15.1097 101.822 14.6676C100.149 14.3958 98.7858 13.2513 98.1318 11.7967C97.3836 10.1328 95.8584 8.57795 93.8764 7.21294C91.9935 5.91605 89.8467 4.89245 87.9596 4.17588Z" fill="white"/>
</svg>
