<svg width="100" height="63" viewBox="0 0 100 63" fill="none" xmlns="http://www.w3.org/2000/svg">
<path fill-rule="evenodd" clip-rule="evenodd" d="M11.0169 58.7535C14.2932 58.7535 16.9492 56.0975 16.9492 52.8213C16.9492 49.545 14.2932 46.8891 11.0169 46.8891C7.74068 46.8891 5.08475 49.545 5.08475 52.8213C5.08475 56.0975 7.74068 58.7535 11.0169 58.7535ZM11.0169 62.1433C16.1654 62.1433 20.339 57.9696 20.339 52.8213C20.339 47.6728 16.1654 43.4992 11.0169 43.4992C5.86853 43.4992 1.69492 47.6728 1.69492 52.8213C1.69492 57.9696 5.86853 62.1433 11.0169 62.1433Z" fill="#3BA605"/>
<path fill-rule="evenodd" clip-rule="evenodd" d="M11.0169 55.3636C12.4211 55.3636 13.5593 54.2253 13.5593 52.8213C13.5593 51.4172 12.4211 50.2789 11.0169 50.2789C9.61283 50.2789 8.47458 51.4172 8.47458 52.8213C8.47458 54.2253 9.61283 55.3636 11.0169 55.3636ZM11.0169 57.0586C13.3571 57.0586 15.2542 55.1614 15.2542 52.8213C15.2542 50.4811 13.3571 48.584 11.0169 48.584C8.67676 48.584 6.77966 50.4811 6.77966 52.8213C6.77966 55.1614 8.67676 57.0586 11.0169 57.0586Z" fill="#3BA605"/>
<path fill-rule="evenodd" clip-rule="evenodd" d="M33.0508 55.3636C34.4549 55.3636 35.5932 54.2253 35.5932 52.8213C35.5932 51.4172 34.4549 50.2789 33.0508 50.2789C31.6468 50.2789 30.5085 51.4172 30.5085 52.8213C30.5085 54.2253 31.6468 55.3636 33.0508 55.3636ZM33.0508 57.0586C35.391 57.0586 37.2881 55.1614 37.2881 52.8213C37.2881 50.4811 35.391 48.584 33.0508 48.584C30.7107 48.584 28.8136 50.4811 28.8136 52.8213C28.8136 55.1614 30.7107 57.0586 33.0508 57.0586Z" fill="#3BA605"/>
<path fill-rule="evenodd" clip-rule="evenodd" d="M87.2881 55.3636C88.6922 55.3636 89.8305 54.2253 89.8305 52.8213C89.8305 51.4172 88.6922 50.2789 87.2881 50.2789C85.8841 50.2789 84.7458 51.4172 84.7458 52.8213C84.7458 54.2253 85.8841 55.3636 87.2881 55.3636ZM87.2881 57.0586C89.6283 57.0586 91.5254 55.1614 91.5254 52.8213C91.5254 50.4811 89.6283 48.584 87.2881 48.584C84.948 48.584 83.0508 50.4811 83.0508 52.8213C83.0508 55.1614 84.948 57.0586 87.2881 57.0586Z" fill="#3BA605"/>
<path fill-rule="evenodd" clip-rule="evenodd" d="M33.0508 58.7535C36.3271 58.7535 38.9831 56.0975 38.9831 52.8213C38.9831 49.545 36.3271 46.8891 33.0508 46.8891C29.7746 46.8891 27.1186 49.545 27.1186 52.8213C27.1186 56.0975 29.7746 58.7535 33.0508 58.7535ZM33.0508 62.1433C38.1993 62.1433 42.3729 57.9696 42.3729 52.8213C42.3729 47.6728 38.1993 43.4992 33.0508 43.4992C27.9024 43.4992 23.7288 47.6728 23.7288 52.8213C23.7288 57.9696 27.9024 62.1433 33.0508 62.1433Z" fill="#3BA605"/>
<path fill-rule="evenodd" clip-rule="evenodd" d="M87.2881 58.7535C90.5644 58.7535 93.2203 56.0975 93.2203 52.8213C93.2203 49.545 90.5644 46.8891 87.2881 46.8891C84.0119 46.8891 81.3559 49.545 81.3559 52.8213C81.3559 56.0975 84.0119 58.7535 87.2881 58.7535ZM87.2881 62.1433C92.4366 62.1433 96.6102 57.9696 96.6102 52.8213C96.6102 47.6728 92.4366 43.4992 87.2881 43.4992C82.1397 43.4992 77.9661 47.6728 77.9661 52.8213C77.9661 57.9696 82.1397 62.1433 87.2881 62.1433Z" fill="#3BA605"/>
<path fill-rule="evenodd" clip-rule="evenodd" d="M45.7627 45.1942C46.6988 45.1942 47.4576 45.953 47.4576 46.8891V52.8213H72.8814V46.8891C72.8814 45.953 73.6402 45.1942 74.5763 45.1942C75.5124 45.1942 76.2712 45.953 76.2712 46.8891V52.8213C76.2712 54.6933 74.7536 56.2111 72.8814 56.2111H47.4576C45.5854 56.2111 44.0678 54.6933 44.0678 52.8213V46.8891C44.0678 45.953 44.8266 45.1942 45.7627 45.1942Z" fill="#3BA605"/>
<path fill-rule="evenodd" clip-rule="evenodd" d="M72.8814 3.46004V39.9451C72.8814 41.8173 71.3637 43.335 69.4915 43.335H1.69492C0.758847 43.335 0 42.5761 0 41.64C0 40.7039 0.758847 39.9451 1.69492 39.9451H69.4915V3.3314C69.4915 1.15835 71.6105 -0.627755 73.8727 0.211397C75.6647 0.875974 77.7925 1.86631 79.7066 3.18462C81.6014 4.48953 83.4239 6.21021 84.4014 8.38428C84.5108 8.62767 84.7293 8.77784 84.9112 8.80733C87.9708 9.30462 90.8703 11.0622 92.3866 12.2029C93.0476 12.7002 93.451 13.4078 93.6075 14.137L95.3325 22.1758C95.3631 22.318 95.6029 22.6875 96.189 23.1289C97.2195 23.9048 98.6056 25.3194 99.1292 26.888C99.3476 27.5424 99.4875 28.7261 99.5949 29.9758C99.71 31.3129 99.8047 32.976 99.8736 34.7511C100.011 38.2958 100.048 42.3604 99.9268 45.2646C99.8876 46.1999 99.0978 46.9263 98.1625 46.8873C97.2273 46.8483 96.5008 46.0585 96.5398 45.1233C96.6559 42.3412 96.6217 38.3741 96.4863 34.8822C96.4186 33.139 96.3264 31.5326 96.2176 30.2663C96.163 29.6322 96.1056 29.0977 96.047 28.6807C96.0176 28.4724 95.9895 28.3038 95.9636 28.1733C95.9507 28.1083 95.9393 28.0577 95.9297 28.0195C95.9251 28.0007 95.9212 27.9865 95.9183 27.9761C95.9153 27.9658 95.9137 27.9612 95.9137 27.9612C95.7037 27.3319 94.9381 26.4304 94.1498 25.8367C93.4595 25.3168 92.3229 24.3073 92.0181 22.887L90.2988 14.8744C88.9708 13.8853 86.621 12.5195 84.3673 12.1533C82.9812 11.928 81.8517 10.9797 81.3098 9.77445C80.6898 8.39581 79.4261 7.1075 77.7839 5.97648C76.2237 4.90191 74.4449 4.05377 72.8814 3.46004Z" fill="#3BA605"/>
</svg>
