<svg width="235" height="55" viewBox="0 0 235 55" fill="none" xmlns="http://www.w3.org/2000/svg">
<path d="M45.7308 22.811C45.7308 28.9293 43.3163 34.4851 39.386 38.5816C35.2234 42.9202 22.8654 54.9858 22.8654 54.9858C22.8654 54.9858 10.5074 42.9202 6.34482 38.5816C2.41452 34.4851 0 28.9293 0 22.811C0 10.2128 10.2372 0 22.8654 0C35.4936 0 45.7308 10.2128 45.7308 22.811Z" fill="#D2D6E3"/>
<path d="M59.0994 16.187V10.6938H63.4959C64.0032 10.6938 64.409 10.8459 64.7303 11.167C65.0347 11.4882 65.1869 11.9107 65.1869 12.4685V14.3277C65.1869 14.97 65.3729 15.4602 65.728 15.8151C66.0831 16.1701 66.5735 16.356 67.216 16.356H67.7233V15.5954H67.216C66.4213 15.5954 66.0323 15.1728 66.0323 14.3277V12.4685C66.0323 11.9783 65.9478 11.6065 65.7787 11.3192C65.6096 11.0318 65.4236 10.8121 65.2207 10.66C64.984 10.474 64.7134 10.3557 64.4259 10.305V10.2374C64.6965 10.1867 64.9332 10.0684 65.1361 9.89938C65.3221 9.74726 65.4912 9.54443 65.6434 9.274C65.7956 9.00356 65.8633 8.63171 65.8633 8.15845V6.38373C65.8633 5.53862 66.2522 5.11607 67.0469 5.11607H67.5542V4.35547H67.0469C66.4044 4.35547 65.914 4.52449 65.5589 4.87944C65.2038 5.23438 65.0178 5.74145 65.0178 6.38373V8.15845C65.0178 8.71623 64.8656 9.13878 64.5612 9.45992C64.2399 9.78106 63.8341 9.93318 63.3268 9.93318H59.0994V4.52449H58.2539V16.187H59.0994Z" fill="white"/>
<path d="M72.03 13.0601H79.132L79.893 16.187H80.7385L77.9484 4.52449H73.2137L70.4236 16.187H71.2691L72.03 13.0601ZM72.1991 12.2995L73.8901 5.28509H77.272L78.9629 12.2995H72.1991Z" fill="white"/>
<path d="M93.5885 8.58101C93.5885 8.00633 93.487 7.46547 93.2672 6.9753C93.0474 6.48514 92.7599 6.06259 92.371 5.69074C91.9821 5.33579 91.5255 5.04846 90.9844 4.82873C90.4433 4.6259 89.8514 4.52449 89.192 4.52449H84.4573V16.187H85.3027V12.6375H89.192C89.8514 12.6375 90.4433 12.5361 90.9844 12.3164C91.5255 12.1136 91.9821 11.8262 92.371 11.4544C92.7599 11.0994 93.0474 10.66 93.2672 10.1698C93.487 9.67965 93.5885 9.15568 93.5885 8.58101ZM92.743 8.58101C92.743 9.03737 92.6585 9.47682 92.4894 9.88247C92.3203 10.2881 92.0835 10.6431 91.7622 10.9304C91.441 11.2177 91.0689 11.4544 90.6462 11.6234C90.2066 11.7924 89.7162 11.8769 89.192 11.8769H85.3027V5.28509H89.192C89.7162 5.28509 90.2066 5.3696 90.6462 5.53862C91.0689 5.70764 91.441 5.94427 91.7622 6.23161C92.0835 6.53585 92.3203 6.89079 92.4894 7.27954C92.6585 7.68519 92.743 8.12465 92.743 8.58101Z" fill="white"/>
<path d="M96.4578 5.28509H100.685V16.187H101.531V5.28509H105.758V4.52449H96.4578V5.28509Z" fill="white"/>
<path d="M108.891 13.0601H115.993L116.754 16.187H117.6L114.809 4.52449H110.075L107.285 16.187H108.13L108.891 13.0601ZM109.06 12.2995L110.751 5.28509H114.133L115.824 12.2995H109.06Z" fill="white"/>
<path d="M66.286 22.8352L59.1839 33.061H59.0994V22.8352H58.2539V34.4976H59.1839L66.286 24.2718H66.3705V34.4976H67.216V22.8352H66.286Z" fill="white"/>
<path d="M71.9501 22.8352V34.4976H72.7955V29.0044H79.8976V34.4976H80.7431V22.8352H79.8976V28.2439H72.7955V22.8352H71.9501Z" fill="white"/>
<path d="M85.4811 22.8352V34.4976H86.3266V29.0044H93.4286V34.4976H94.2741V22.8352H93.4286V28.2439H86.3266V22.8352H85.4811Z" fill="white"/>
<path d="M109.665 28.6664C109.665 29.427 109.513 30.1538 109.226 30.8299C108.938 31.506 108.549 32.0975 108.059 32.6046C107.568 33.1117 107.01 33.5173 106.385 33.8047C105.759 34.092 105.1 34.2441 104.423 34.2441C103.747 34.2441 103.087 34.092 102.462 33.8047C101.836 33.5173 101.278 33.1117 100.788 32.6046C100.297 32.0975 99.9083 31.506 99.6209 30.8299C99.3334 30.1538 99.1812 29.427 99.1812 28.6664C99.1812 27.9058 99.3334 27.1959 99.6209 26.5198C99.9083 25.8437 100.297 25.2522 100.788 24.7451C101.278 24.238 101.836 23.8324 102.462 23.5281C103.087 23.2408 103.747 23.0887 104.423 23.0887C105.1 23.0887 105.759 23.2408 106.385 23.5281C107.01 23.8324 107.568 24.238 108.059 24.7451C108.549 25.2522 108.938 25.8437 109.226 26.5198C109.513 27.1959 109.665 27.9058 109.665 28.6664ZM98.3357 28.6664C98.3357 29.5284 98.5048 30.3566 98.843 31.1172C99.1643 31.8778 99.6209 32.5539 100.179 33.1286C100.737 33.7032 101.379 34.1596 102.124 34.4976C102.851 34.8357 103.628 35.0047 104.423 35.0047C105.218 35.0047 105.996 34.8357 106.74 34.4976C107.467 34.1596 108.126 33.7032 108.684 33.1286C109.242 32.5539 109.682 31.8778 110.02 31.1172C110.342 30.3566 110.511 29.5284 110.511 28.6664C110.511 27.8044 110.342 26.9762 110.02 26.2156C109.682 25.455 109.242 24.7789 108.684 24.2042C108.126 23.6296 107.467 23.1732 106.74 22.8352C105.996 22.4971 105.218 22.3281 104.423 22.3281C103.628 22.3281 102.851 22.4971 102.124 22.8352C101.379 23.1732 100.737 23.6296 100.179 24.2042C99.6209 24.7789 99.1643 25.455 98.843 26.2156C98.5048 26.9762 98.3357 27.8044 98.3357 28.6664Z" fill="white"/>
<path d="M115.42 23.5958H119.478C119.833 23.5958 120.171 23.6465 120.459 23.7479C120.746 23.8662 121 24.0183 121.203 24.2042C121.406 24.3902 121.558 24.6268 121.676 24.8803C121.795 25.1339 121.845 25.4212 121.845 25.7085C121.845 26.3508 121.626 26.8748 121.203 27.2804C120.78 27.703 120.205 27.9058 119.478 27.9058H115.42V23.5958ZM120.324 33.7371H115.42V28.6664H120.324C120.746 28.6664 121.118 28.734 121.473 28.8523C121.812 28.9875 122.099 29.1735 122.353 29.3932C122.606 29.6129 122.792 29.8834 122.928 30.1876C123.046 30.5087 123.114 30.8468 123.114 31.2017C123.114 31.5567 123.046 31.8947 122.928 32.199C122.792 32.5201 122.606 32.7905 122.353 33.0103C122.099 33.23 121.812 33.4159 121.473 33.5342C121.118 33.6694 120.746 33.7371 120.324 33.7371ZM119.478 22.8352H114.574V34.4976H120.324C120.848 34.4976 121.338 34.4131 121.795 34.2272C122.234 34.0582 122.623 33.8216 122.945 33.5173C123.266 33.2131 123.503 32.8581 123.689 32.4525C123.875 32.0637 123.959 31.6412 123.959 31.2017C123.959 30.8637 123.925 30.5594 123.841 30.289C123.756 30.0355 123.638 29.7988 123.503 29.5791C123.367 29.3763 123.215 29.1904 123.046 29.0383C122.877 28.8861 122.708 28.7678 122.522 28.6664C122.099 28.4129 121.609 28.2439 121.085 28.1593V28.0748C121.372 27.9734 121.643 27.8213 121.879 27.6185C122.082 27.4325 122.268 27.1959 122.437 26.8917C122.606 26.6043 122.691 26.1987 122.691 25.7085C122.691 25.3198 122.606 24.9648 122.454 24.6099C122.302 24.2718 122.082 23.9676 121.795 23.6972C121.507 23.4436 121.152 23.2239 120.763 23.0718C120.374 22.9197 119.935 22.8352 119.478 22.8352Z" fill="white"/>
<path d="M128.433 31.3707H135.535L136.296 34.4976H137.141L134.351 22.8352H129.617L126.827 34.4976H127.672L128.433 31.3707ZM128.602 30.6102L130.293 23.5958H133.675L135.366 30.6102H128.602Z" fill="white"/>
<path d="M140.86 34.4976H149.822V36.6949H150.668V33.7371H149.315V22.8352H148.47V33.7371H141.706V22.8352H140.86V34.4976Z" fill="white"/>
<path d="M162.258 22.8352L155.156 33.061H155.072V22.8352H154.226V34.4976H155.156L162.258 24.2718H162.343V34.4976H163.188V22.8352H162.258Z" fill="white"/>
<path d="M178.575 28.6664C178.575 29.427 178.423 30.1538 178.136 30.8299C177.848 31.506 177.459 32.0975 176.969 32.6046C176.479 33.1117 175.921 33.5173 175.295 33.8047C174.669 34.092 174.01 34.2441 173.333 34.2441C172.657 34.2441 171.998 34.092 171.372 33.8047C170.746 33.5173 170.188 33.1117 169.698 32.6046C169.207 32.0975 168.818 31.506 168.531 30.8299C168.244 30.1538 168.091 29.427 168.091 28.6664C168.091 27.9058 168.244 27.1959 168.531 26.5198C168.818 25.8437 169.207 25.2522 169.698 24.7451C170.188 24.238 170.746 23.8324 171.372 23.5281C171.998 23.2408 172.657 23.0887 173.333 23.0887C174.01 23.0887 174.669 23.2408 175.295 23.5281C175.921 23.8324 176.479 24.238 176.969 24.7451C177.459 25.2522 177.848 25.8437 178.136 26.5198C178.423 27.1959 178.575 27.9058 178.575 28.6664ZM167.246 28.6664C167.246 29.5284 167.415 30.3566 167.753 31.1172C168.074 31.8778 168.531 32.5539 169.089 33.1286C169.647 33.7032 170.29 34.1596 171.034 34.4976C171.761 34.8357 172.539 35.0047 173.333 35.0047C174.128 35.0047 174.906 34.8357 175.65 34.4976C176.377 34.1596 177.037 33.7032 177.595 33.1286C178.153 32.5539 178.592 31.8778 178.93 31.1172C179.252 30.3566 179.421 29.5284 179.421 28.6664C179.421 27.8044 179.252 26.9762 178.93 26.2156C178.592 25.455 178.153 24.7789 177.595 24.2042C177.037 23.6296 176.377 23.1732 175.65 22.8352C174.906 22.4971 174.128 22.3281 173.333 22.3281C172.539 22.3281 171.761 22.4971 171.034 22.8352C170.29 23.1732 169.647 23.6296 169.089 24.2042C168.531 24.7789 168.074 25.455 167.753 26.2156C167.415 26.9762 167.246 27.8044 167.246 28.6664Z" fill="white"/>
<path d="M183.484 22.8352V34.4976H184.33V29.0044H191.432V34.4976H192.277V22.8352H191.432V28.2439H184.33V22.8352H183.484Z" fill="white"/>
<path d="M197.015 22.8352V34.4976H197.861V29.0044H204.963V34.4976H205.808V22.8352H204.963V28.2439H197.861V22.8352H197.015Z" fill="white"/>
<path d="M218.832 30.6947C218.832 30.1707 218.731 29.6636 218.528 29.2073C218.325 28.7509 218.037 28.3453 217.682 27.9903C217.327 27.6523 216.888 27.3818 216.38 27.179C215.856 26.9931 215.298 26.8917 214.689 26.8917H211.392V22.8352H210.546V34.4976H214.689C215.298 34.4976 215.856 34.3962 216.38 34.1934C216.888 34.0075 217.327 33.7371 217.682 33.3821C218.037 33.0441 218.325 32.6384 218.528 32.1821C218.731 31.7257 218.832 31.2186 218.832 30.6947ZM217.987 30.6947C217.987 31.1172 217.902 31.5229 217.75 31.8778C217.581 32.2497 217.361 32.5708 217.074 32.8412C216.786 33.1286 216.431 33.3483 216.025 33.5004C215.619 33.6525 215.18 33.7371 214.689 33.7371H211.392V27.6523H214.689C215.18 27.6523 215.619 27.7368 216.025 27.8889C216.431 28.041 216.786 28.2608 217.074 28.5312C217.361 28.8185 217.581 29.1397 217.75 29.5115C217.902 29.8834 217.987 30.2721 217.987 30.6947ZM221.538 34.4976V22.8352H220.692V34.4976H221.538Z" fill="white"/>
<path d="M234.306 22.8352H233.376L229.909 27.7368H229.825L226.358 22.8352H225.428L229.402 28.4129L225.09 34.4976H226.02L229.825 29.089H229.909L233.714 34.4976H234.644L230.332 28.4129L234.306 22.8352Z" fill="white"/>
<path d="M67.3851 45.2023C67.3851 44.6277 67.2837 44.0868 67.0638 43.5966C66.844 43.1065 66.5565 42.6839 66.1676 42.3121C65.7787 41.9571 65.3221 41.6698 64.781 41.4501C64.2399 41.2472 63.6481 41.1458 62.9886 41.1458H58.2539V52.8083H59.0994V49.2589H62.9886C63.6481 49.2589 64.2399 49.1575 64.781 48.9377C65.3221 48.7349 65.7787 48.4476 66.1676 48.0757C66.5565 47.7208 66.844 47.2813 67.0638 46.7911C67.2837 46.301 67.3851 45.777 67.3851 45.2023ZM66.5396 45.2023C66.5396 45.6587 66.4551 46.0982 66.286 46.5038C66.1169 46.9095 65.8802 47.2644 65.5589 47.5517C65.2376 47.8391 64.8656 48.0757 64.4428 48.2447C64.0032 48.4138 63.5128 48.4983 62.9886 48.4983H59.0994V41.9064H62.9886C63.5128 41.9064 64.0032 41.9909 64.4428 42.16C64.8656 42.329 65.2376 42.5656 65.5589 42.8529C65.8802 43.1572 66.1169 43.5121 66.286 43.9009C66.4551 44.3065 66.5396 44.746 66.5396 45.2023Z" fill="white"/>
<path d="M79.5548 52.0477H72.2836V47.3151H78.0329V46.5545H72.2836V41.9064H79.5548V41.1458H71.4382V52.8083H79.5548V52.0477Z" fill="white"/>
<path d="M83.2683 41.1458V52.8083H96.9651V41.1458H96.1196V52.0477H90.5395V41.1458H89.694V52.0477H84.1138V41.1458H83.2683Z" fill="white"/>
<path d="M109.82 52.0477H102.549V47.3151H108.299V46.5545H102.549V41.9064H109.82V41.1458H101.704V52.8083H109.82V52.0477Z" fill="white"/>
<path d="M113.534 41.1458V52.8083H114.379V47.3151H121.481V52.8083H122.327V41.1458H121.481V46.5545H114.379V41.1458H113.534Z" fill="white"/>
<path d="M135.097 41.1458L127.995 51.3716H127.91V41.1458H127.065V52.8083H127.995L135.097 42.5825H135.182V52.8083H136.027V41.1458H135.097Z" fill="white"/>
<path d="M145.242 39.6246C145.885 39.6246 146.409 39.4218 146.832 38.9993C147.238 38.5936 147.44 38.0696 147.44 37.4274H146.764C146.764 37.8499 146.612 38.2218 146.324 38.5091C146.037 38.7964 145.665 38.9486 145.242 38.9486C144.819 38.9486 144.447 38.7964 144.16 38.5091C143.873 38.2218 143.72 37.8499 143.72 37.4274H143.044C143.044 38.0696 143.247 38.5936 143.67 38.9993C144.075 39.4218 144.6 39.6246 145.242 39.6246ZM148.793 41.1458L141.691 51.3716H141.607V41.1458H140.761V52.8083H141.691L148.793 42.5825H148.878V52.8083H149.723V41.1458H148.793Z" fill="white"/>
<mask id="path-3-inside-1_22:4681" fill="white">
<path fill-rule="evenodd" clip-rule="evenodd" d="M33.1109 29.7759C34.4404 27.7999 35.2163 25.4203 35.2163 22.8596C35.2163 16.0085 29.6624 10.4546 22.8113 10.4546C15.9602 10.4546 10.4062 16.0085 10.4062 22.8596C10.4062 25.4205 11.1822 27.8001 12.5119 29.7762L22.8115 19.4765L33.1109 29.7759Z"/>
</mask>
<path fill-rule="evenodd" clip-rule="evenodd" d="M33.1109 29.7759C34.4404 27.7999 35.2163 25.4203 35.2163 22.8596C35.2163 16.0085 29.6624 10.4546 22.8113 10.4546C15.9602 10.4546 10.4062 16.0085 10.4062 22.8596C10.4062 25.4205 11.1822 27.8001 12.5119 29.7762L22.8115 19.4765L33.1109 29.7759Z" fill="#E53151"/>
<path d="M33.1109 29.7759L28.8682 34.0185L34.021 39.1713L38.0889 33.1253L33.1109 29.7759ZM12.5119 29.7762L7.53391 33.1258L11.6019 39.1714L16.7545 34.0188L12.5119 29.7762ZM22.8115 19.4765L27.0542 15.2339L22.8115 10.9913L18.5689 15.2339L22.8115 19.4765ZM29.2163 22.8596C29.2163 24.1902 28.8171 25.4094 28.1328 26.4264L38.0889 33.1253C40.0637 30.1903 41.2163 26.6505 41.2163 22.8596H29.2163ZM22.8113 16.4546C26.3487 16.4546 29.2163 19.3222 29.2163 22.8596H41.2163C41.2163 12.6948 32.9761 4.45459 22.8113 4.45459V16.4546ZM16.4062 22.8596C16.4062 19.3222 19.2739 16.4546 22.8113 16.4546V4.45459C12.6465 4.45459 4.40625 12.6948 4.40625 22.8596H16.4062ZM17.4899 26.4266C16.8055 25.4095 16.4062 24.1903 16.4062 22.8596H4.40625C4.40625 26.6507 5.55896 30.1907 7.53391 33.1258L17.4899 26.4266ZM16.7545 34.0188L27.0542 23.7192L18.5689 15.2339L8.26925 25.5335L16.7545 34.0188ZM18.5689 23.7192L28.8682 34.0185L37.3535 25.5332L27.0542 15.2339L18.5689 23.7192Z" fill="#E53151" mask="url(#path-3-inside-1_22:4681)"/>
<rect x="15.4965" y="43.4404" width="10.3472" height="10.3472" transform="rotate(-45 15.4965 43.4404)" stroke="black" stroke-width="6"/>
<rect x="9.28952" y="37.2383" width="19.1189" height="19.1189" transform="rotate(-45 9.28952 37.2383)" fill="#0054D1" stroke="#0054D1" stroke-width="6"/>
</svg>
