<svg width="152" height="55" viewBox="0 0 152 55" fill="none" xmlns="http://www.w3.org/2000/svg">
<path d="M87.5816 9.12742H84.8571L84.2762 11.0788H82.8008L85.0781 3.85449H87.3914L89.679 11.0788H88.1676L87.5816 9.12742ZM85.2375 7.81438H87.1806L86.4301 5.30247H85.988L85.2375 7.81438Z" fill="white"/>
<path d="M92.1822 5.20453V11.0847H90.6914V3.86035H95.8526V5.20453H92.1822Z" fill="white"/>
<path d="M102.485 9.7353V11.0795H97.082V3.86035H102.372V5.20453H98.5728V6.71998H101.529V8.03302H98.5728V9.7353H102.485Z" fill="white"/>
<path d="M109.914 3.86035V11.0847H108.423V8.05897H105.256V11.0847H103.766V3.86035H105.256V6.67327H108.423V3.86035H109.914Z" fill="white"/>
<path d="M116.837 5.18377H114.611V11.0847H113.12V5.18377H110.895V3.86035H116.837V5.18377Z" fill="white"/>
<path d="M123.845 8.77504C123.624 10.2126 122.534 11.2143 120.859 11.2143C118.674 11.2143 117.43 9.67808 117.43 7.47238C117.43 5.26667 118.684 3.73047 120.859 3.73047C122.452 3.73047 123.527 4.6387 123.773 5.96731H122.211C122.041 5.39123 121.568 5.07465 120.859 5.07465C119.573 5.07465 118.967 6.1282 118.967 7.47238C118.967 8.80618 119.578 9.8701 120.859 9.8701C121.63 9.8701 122.149 9.46529 122.293 8.77504H123.845Z" fill="white"/>
<path d="M130.431 5.18377H128.205V11.0847H126.714V5.18377H124.488V3.86035H130.431V5.18377Z" fill="white"/>
<path d="M137.335 8.98796C137.335 10.192 136.564 11.0847 134.867 11.0847H131.418V3.86035H134.775C136.358 3.86035 137.129 4.74263 137.129 5.77023C137.129 6.42934 136.836 6.99504 136.379 7.22859V7.43099C136.893 7.64378 137.335 8.27175 137.335 8.98796ZM135.602 5.91036C135.602 5.3758 135.263 5.11111 134.59 5.11111H132.914V6.71998H134.6C135.268 6.71998 135.602 6.46048 135.602 5.91036ZM135.803 8.90492C135.803 8.2977 135.433 7.98631 134.672 7.98631H132.919V9.79758H134.651C135.392 9.79758 135.803 9.51214 135.803 8.90492Z" fill="white"/>
<path d="M145.311 7.47238C145.311 9.59504 144.087 11.2143 141.825 11.2143C139.563 11.2143 138.34 9.59504 138.34 7.47238C138.34 5.34971 139.563 3.73047 141.825 3.73047C144.087 3.73047 145.311 5.34452 145.311 7.47238ZM143.779 7.47238C143.779 6.13858 143.167 5.07465 141.825 5.07465C140.494 5.07465 139.872 6.13858 139.872 7.47238C139.872 8.80618 140.494 9.8701 141.825 9.8701C143.167 9.8701 143.779 8.80618 143.779 7.47238Z" fill="white"/>
<path d="M84.8475 17.2085V22.2583H85.048L87.7417 17.2085H89.6951V24.4328H88.2917V19.2741H88.0913L85.3358 24.4328H83.4492V17.2085H84.8475Z" fill="white"/>
<path d="M97.5037 17.2085V24.4328H96.0129V21.4071H92.8463V24.4328H91.3555V17.2085H92.8463V20.0214H96.0129V17.2085H97.5037Z" fill="white"/>
<path d="M105.312 17.2085V24.4328H103.822V21.4071H100.655V24.4328H99.1641V17.2085H100.655V20.0214H103.822V17.2085H105.312Z" fill="white"/>
<path d="M113.6 20.821C113.6 22.9437 112.376 24.5629 110.114 24.5629C107.852 24.5629 106.629 22.9437 106.629 20.821C106.629 18.6983 107.852 17.0791 110.114 17.0791C112.376 17.0791 113.6 18.6932 113.6 20.821ZM112.068 20.821C112.068 19.4872 111.456 18.4233 110.114 18.4233C108.783 18.4233 108.161 19.4872 108.161 20.821C108.161 22.1548 108.783 23.2187 110.114 23.2187C111.456 23.2187 112.068 22.1548 112.068 20.821Z" fill="white"/>
<path d="M120.835 22.3366C120.835 23.5406 120.064 24.4333 118.367 24.4333H114.918V17.209H118.275C119.858 17.209 120.629 18.0913 120.629 19.1189C120.629 19.778 120.336 20.3437 119.879 20.5772V20.7796C120.393 20.9924 120.835 21.6204 120.835 22.3366ZM119.102 19.259C119.102 18.7244 118.763 18.4597 118.09 18.4597H116.414V20.0686H118.1C118.768 20.0686 119.102 19.8091 119.102 19.259ZM119.303 22.2536C119.303 21.6463 118.933 21.3349 118.172 21.3349H116.419V23.1462H118.151C118.892 23.1462 119.303 22.8608 119.303 22.2536Z" fill="white"/>
<path d="M126.312 22.4765H123.588L123.007 24.4279H121.531L123.809 17.2036H126.122L128.409 24.4279H126.898L126.312 22.4765ZM123.963 21.1635H125.906L125.155 18.6516H124.713L123.963 21.1635Z" fill="white"/>
<path d="M135.021 24.4333H129.418V17.209H130.909V23.0891H133.957V17.209H135.448V23.0891H136.471V26.2031H135.016V24.4333H135.021Z" fill="white"/>
<path d="M138.937 17.2085V22.2583H139.138L141.832 17.2085H143.785V24.4328H142.382V19.2741H142.181L139.426 24.4328H137.539V17.2085H138.937Z" fill="white"/>
<path d="M146.832 17.2087V22.2584H147.032L149.726 17.2087H151.68V24.433H150.276V19.2742H150.076L147.32 24.433H145.434V17.2087H146.832ZM150.451 15.2832C150.369 16.2433 149.69 16.8402 148.559 16.8402C147.428 16.8402 146.744 16.2433 146.667 15.2832H147.767C147.809 15.6257 148.066 15.9112 148.559 15.9112C149.042 15.9112 149.299 15.6361 149.351 15.2832H150.451Z" fill="white"/>
<path d="M84.9439 31.9013V37.7814H83.4531V30.5571H88.6143V31.9013H84.9439Z" fill="white"/>
<path d="M96.2989 34.1687C96.2989 36.2913 95.0754 37.9106 92.8135 37.9106C90.5516 37.9106 89.3281 36.2913 89.3281 34.1687C89.3281 32.046 90.5516 30.4268 92.8135 30.4268C95.0754 30.4268 96.2989 32.0408 96.2989 34.1687ZM94.767 34.1687C94.767 32.8349 94.1552 31.7709 92.8135 31.7709C91.4821 31.7709 90.86 32.8349 90.86 34.1687C90.86 35.5025 91.4821 36.5664 92.8135 36.5664C94.1552 36.5664 94.767 35.5025 94.767 34.1687Z" fill="white"/>
<path d="M103.475 32.8506C103.475 34.3089 102.524 35.186 100.889 35.186H99.1158V37.7758H97.625V30.5566H100.894C102.524 30.5566 103.475 31.413 103.475 32.8506ZM101.943 32.8713C101.943 32.233 101.604 31.8801 100.679 31.8801H99.1158V33.8626H100.679C101.604 33.8626 101.943 33.4993 101.943 32.8713Z" fill="white"/>
<path d="M111.424 34.1692C111.424 36.2918 110.2 37.9111 107.939 37.9111C105.677 37.9111 104.453 36.2918 104.453 34.1692C104.453 32.0465 105.677 30.4272 107.939 30.4272C110.2 30.4272 111.424 32.0413 111.424 34.1692ZM109.892 34.1692C109.892 32.8354 109.28 31.7714 107.939 31.7714C106.607 31.7714 105.985 32.8354 105.985 34.1692C105.985 35.503 106.607 36.5669 107.939 36.5669C109.28 36.5669 109.892 35.503 109.892 34.1692Z" fill="white"/>
<path d="M119.514 36.4321V39.546H118.06V37.7815H113.361V39.5512H111.906V36.4373H112.647C113.13 35.5654 113.5 34.2523 113.5 32.1452V30.5571H118.491V36.4321H119.514ZM117.037 31.9013H114.883V32.5397C114.883 34.3613 114.574 35.6536 114.163 36.4373H117.042V31.9013H117.037Z" fill="white"/>
<path d="M124.718 35.8247H121.994L121.413 37.7761H119.938L122.215 30.5518H124.528L126.816 37.7761H125.304L124.718 35.8247ZM122.369 34.5116H124.312L123.562 31.9997H123.12L122.369 34.5116Z" fill="white"/>
<path d="M83.4531 43.9053H85.787L86.9488 46.7909H87.1493L88.3111 43.9053H90.6038V51.1296H89.2107V45.4934H89.0102L87.7096 48.7111H86.3473L85.0467 45.4934H84.8463V51.1296H83.4531V43.9053Z" fill="white"/>
<path d="M98.8965 47.5178C98.8965 49.6404 97.673 51.2597 95.4112 51.2597C93.1493 51.2597 91.9258 49.6404 91.9258 47.5178C91.9258 45.3951 93.1493 43.7759 95.4112 43.7759C97.673 43.7759 98.8965 45.3899 98.8965 47.5178ZM97.3646 47.5178C97.3646 46.184 96.7529 45.1201 95.4112 45.1201C94.0797 45.1201 93.4577 46.184 93.4577 47.5178C93.4577 48.8516 94.0797 49.9155 95.4112 49.9155C96.7529 49.9155 97.3646 48.8516 97.3646 47.5178Z" fill="white"/>
<path d="M106.294 48.8204C106.073 50.258 104.984 51.2597 103.308 51.2597C101.123 51.2597 99.8789 49.7235 99.8789 47.5178C99.8789 45.3121 101.133 43.7759 103.308 43.7759C104.901 43.7759 105.976 44.6841 106.223 46.0127H104.66C104.49 45.4366 104.017 45.1201 103.308 45.1201C102.023 45.1201 101.416 46.1736 101.416 47.5178C101.416 48.8516 102.028 49.9155 103.308 49.9155C104.079 49.9155 104.598 49.5107 104.742 48.8204H106.294Z" fill="white"/>
<path d="M107.611 43.9053H109.101V46.7286H110.757L112.109 43.9053H113.651L112.006 47.4188L113.738 51.1348H112.196L110.762 48.0987H109.096V51.1348H107.605V43.9053H107.611Z" fill="white"/>
<path d="M120.698 49.0329C120.698 50.2369 119.927 51.1296 118.231 51.1296H114.781V43.9053H118.138C119.721 43.9053 120.493 44.7876 120.493 45.8152C120.493 46.4743 120.2 47.04 119.742 47.2735V47.4759C120.256 47.6887 120.698 48.3167 120.698 49.0329ZM118.961 45.9553C118.961 45.4207 118.621 45.156 117.948 45.156H116.272V46.7649H117.958C118.632 46.7649 118.961 46.5054 118.961 45.9553ZM119.161 48.955C119.161 48.3478 118.791 48.0364 118.03 48.0364H116.277V49.8477H118.01C118.755 49.8425 119.161 49.5571 119.161 48.955Z" fill="white"/>
<path d="M122.039 51.1296V43.9053H123.53V46.3549H125.021C126.697 46.3549 127.678 47.2579 127.678 48.7319C127.678 50.2317 126.697 51.1296 125.021 51.1296H122.039ZM126.146 48.7422C126.146 48.0624 125.787 47.6783 124.794 47.6783H123.53V49.801H124.794C125.787 49.801 126.146 49.4273 126.146 48.7422ZM129.966 43.9053V51.1296H128.475V43.9053H129.966Z" fill="white"/>
<path fill-rule="evenodd" clip-rule="evenodd" d="M37.2848 47.1749C37.0175 46.7545 36.8016 46.1629 36.5497 45.6387C36.0202 44.5177 36.5394 44.7357 36.2104 44.0869C35.8455 43.3707 35.6604 44.0714 34.7351 42.6441C34.5551 42.3587 34.185 42.4832 34.1439 43.1683C34.0976 43.8482 35.2286 44.4917 35.7478 46.1473C36.267 47.8029 36.6988 47.9949 36.2721 49.0121C35.8557 50.0293 33.7943 49.9671 33.7943 49.9671C35.4034 51.659 38.678 49.3598 37.2848 47.1749ZM20.1613 45.2235C17.9405 42.9867 18.7476 43.2098 20.1613 41.2169C21.2048 39.7378 26.3044 38.4299 28.8747 37.8591L28.8233 37.6203C27.5227 37.6774 25.5692 37.7501 23.6106 37.7449C20.2538 37.7449 18.8966 36.4526 18.0279 36.6187C14.6916 37.2518 17.0614 41.1131 13.1494 40.563C9.23218 40.0181 9.3607 44.1129 9.3607 44.1129C10.4711 41.8345 11.6226 42.1563 12.5068 42.1148C13.5298 42.0681 14.5322 42.831 15.9716 41.6165C16.2852 41.3519 17.7194 39.0164 17.5138 40.1841C17.3956 40.864 16.8095 41.6477 16.3417 42.1822C16.0076 42.5663 15.8122 42.8569 16.496 43.241C16.7376 43.3811 17.0563 43.5627 17.4675 43.8015C19.0509 44.7201 18.7887 45.7684 17.7554 45.7114C17.0203 45.6698 16.1515 45.3065 15.4216 45.2287C15.1234 45.1976 14.7893 45.3221 15.2571 45.5453C15.5038 45.6646 15.7814 45.8359 16.023 46.0798C17.1848 47.2528 15.7968 46.7908 19.128 46.6092C19.8374 46.5677 20.3412 46.5002 20.6959 46.4276C22.0119 46.1369 20.4491 45.5193 20.1613 45.2235ZM22.3974 16.9905C21.431 17.6185 19.8425 17.3071 19.8425 17.3071C20.0533 17.6081 21.21 17.9662 21.7908 17.9558C22.2946 17.9455 22.7419 17.7431 23.1377 17.3071C24.0013 16.3574 23.6518 14.7693 23.441 14.572C23.4359 14.5668 23.3382 16.3781 22.3974 16.9905ZM20.9324 11.8785L21.3385 11.702C21.3385 11.702 21.0249 10.7834 21.0043 9.96861C20.9838 9.1538 21.3179 7.34772 21.3179 7.34772H20.9324C20.9324 7.34772 20.7576 8.67633 20.5262 9.83367C20.3001 10.9962 19.6986 10.7678 19.4004 10.7471C19.1074 10.7263 16.7581 10.3838 16.7581 10.3838V10.7315C16.7581 10.7315 16.9072 10.7523 18.0947 10.9235C19.2873 11.1 20.9324 11.8785 20.9324 11.8785ZM18.4648 6.17999C18.4648 6.17999 18.7887 6.28898 19.4056 6.30455C20.0276 6.31493 20.3309 5.73885 20.3309 5.73885C18.8195 5.58834 18.3826 5.0486 18.3826 5.0486C18.3826 5.0486 19.822 4.97594 20.5468 4.87733C21.2716 4.77872 22.5979 4.42062 22.5979 4.42062C22.5979 4.42062 22.5465 5.61948 22.5362 6.31493C22.5311 7.01037 23.4153 6.85987 23.7135 6.76645C24.0836 6.64708 24.1453 5.26138 24.207 4.0729C24.2532 3.17505 23.5952 3.16986 23.2148 3.32555C22.6596 3.5591 21.6058 4.10404 20.4646 4.45695C19.3233 4.80467 17.5395 4.55037 17.5395 4.55037L17.4418 4.92404L18.9429 5.85303L18.4648 6.17999ZM46.1371 35.0461C45.6179 33.1882 43.9677 29.3995 42.8419 27.6713C41.7058 25.9431 41.1249 27.1835 40.6777 27.5727C40.2253 27.9619 38.899 30.2144 38.3181 27.3132C37.7372 24.4121 34.7659 21.895 34.7659 21.895C35.3777 24.0799 35.2183 25.6784 35.0538 27.0849C34.8944 28.4861 35.2491 28.974 35.2491 29.8199C35.2491 30.6711 32.7302 31.2264 32.5965 31.8751C32.468 32.529 36.3441 35.207 40.0402 32.5187C41.1506 31.709 41.8395 34.8437 42.1942 35.6897C42.5489 36.5408 41.8395 36.8003 42.6774 37.7812C43.5205 38.7569 42.8728 39.5821 42.8728 40.1945C42.8728 40.7654 44.5383 42.203 44.8468 41.8916C45.3865 41.3519 44.1682 38.1393 43.685 37.0339C43.1966 35.9232 42.4255 32.337 41.8755 31.3561C41.5619 30.7956 39.9374 31.1952 39.9374 31.1952L39.8243 30.7593C39.8243 30.7593 40.0505 30.4687 40.2561 30.2507C41.9372 28.4861 41.8086 29.2075 43.5513 31.3613C45.294 33.5151 43.1966 34.3611 44.7131 35.4717C46.2296 36.5772 46.6511 36.9041 46.1371 35.0461ZM22.711 7.67987C22.3306 7.78367 21.4053 7.93417 21.8371 10.088C22.2689 12.2418 23.4204 11.7176 23.734 11.4425C23.734 11.4425 22.1661 11.2765 22.125 9.41329C22.0787 7.54493 24.2172 7.88746 24.2172 7.88746C24.0836 7.74215 23.3176 7.51898 22.711 7.67987ZM23.8882 13.3109C21.2614 13.4614 20.3412 12.5117 18.5419 11.6398C16.7376 10.7627 15.1902 11.4062 14.9178 11.8162C15.7557 11.8681 16.7067 12.2054 18.5111 13.3472C22.1558 15.6463 23.8882 13.3109 23.8882 13.3109ZM1.45434 33.1103C2.5236 32.8145 2.5236 32.0152 2.53903 31.8492C2.70867 32.0775 2.77036 32.3318 2.7755 32.6536C3.24844 32.0308 3.13534 30.9513 1.97355 30.3078C1.97355 30.3078 2.04038 31.7246 1.14076 32.2228C0.205159 32.7418 0.0560796 33.074 0.0046729 33.5878C-0.0158898 33.8369 0.0303763 34.1016 0.164034 34.304C0.28741 34.5064 0.493037 34.6517 0.688383 34.6984C0.405645 34.3144 0.349098 33.4113 1.45434 33.1103ZM24.6182 22.2842C24.6182 21.4175 24.8393 20.9971 25.0757 20.9867C25.8006 20.9556 25.9599 21.9936 25.9702 22.279C26.0011 23.1094 25.3945 23.5038 25.3945 23.5038C25.9137 23.5505 26.3249 22.824 26.3918 22.3621C26.4894 21.6822 26.3712 21.4434 26.1296 20.9919C26.1296 20.9919 27.6512 22.4762 27.4867 24.1214C27.3017 25.9846 25.2197 26.9655 25.2197 26.9655C25.8366 27.1886 27.6255 27.007 28.7667 25.5383C29.399 24.7286 29.6766 23.4935 28.9107 21.5472C28.2167 19.7827 26.8955 18.288 28.2989 14.899C29.6664 11.5982 33.2957 11.1675 35.4753 12.7348C35.6193 12.8386 35.6964 12.958 35.7478 13.0877C35.8917 13.477 34.8687 13.9908 35.316 14.2243C35.6244 14.3852 36.0254 14.4267 36.3698 14.6966C36.6885 14.9405 36.7502 15.1481 36.9147 15.2986C37.0381 15.4128 37.0895 15.4336 37.2077 15.4336C36.2207 14.2658 36.0562 12.9424 35.8969 11.536C35.1206 11.3335 33.892 10.7004 32.6788 10.5551C31.918 10.4668 30.0776 10.3423 28.227 11.2609C26.145 12.2937 23.9448 14.297 23.9448 18.9471C23.9448 20.9504 24.6182 22.3984 24.6182 22.2842ZM12.6713 25.3878C13.9308 26.7319 15.2879 26.1922 15.8945 26.2648C16.5011 26.3375 17.1951 27.8997 16.8301 29.4203C16.46 30.9357 16.316 30.6763 16.0641 31.626C15.7506 32.8249 17.2208 33.6864 16.8764 34.7918C16.7838 35.098 16.5679 35.5392 16.825 35.8869C17.2208 36.4266 17.8685 35.7156 18.6807 35.835C19.3182 35.9284 19.8785 35.7104 20.1561 35.5444C20.0584 35.0773 18.2232 35.3627 17.812 34.605C17.632 34.2728 17.1488 30.8216 18.2129 29.2802C19.1897 27.8685 18.2849 27.4274 17.6115 26.2856C18.5317 25.777 20.6856 24.6923 20.6856 24.6923C21.3899 25.5123 21.8937 26.2233 22.3203 27.2146C22.5465 27.7076 22.7059 28.237 22.6853 28.7664C22.7007 29.3061 22.5003 29.8355 22.161 30.3181C22.6082 30.2507 23.0195 29.4411 23.1428 28.8183C23.2611 28.1955 23.1737 27.5519 23.004 26.9603C22.382 25.0348 20.9324 23.6595 20.9324 23.6595C20.9324 23.6595 18.9738 24.3394 17.1488 25.3359C16.5731 24.2512 15.9973 24.4432 15.2828 24.5055C14.5733 24.5678 14.1415 23.81 14.1415 23.81C14.6916 23.9865 15.4627 24.0176 16.4908 23.6076C18.8041 22.6786 17.9302 20.7584 17.9302 20.7584C17.9302 20.7584 17.9765 22.1545 16.5988 22.3517C15.7403 22.471 13.4938 21.9105 13.4938 21.9105C13.4938 21.9105 15.2982 21.6978 15.6632 20.6546C16.1618 19.2222 17.5961 19.7827 17.5961 19.7827C17.5961 19.7827 16.8352 18.8745 15.6529 19.5855C14.9383 20.0214 13.7457 20.1615 12.2857 19.4142C10.8258 18.6669 10.2963 19.902 10.0033 19.9332C9.71027 19.9695 9.47894 19.4817 9.64344 18.9731C9.80794 18.4645 11.4838 17.987 14.0079 17.8884C15.6734 17.8261 16.4908 18.1531 16.8558 18.3866C16.8609 18.2465 16.4086 17.6237 15.036 17.2863C13.6634 16.9438 13.756 16.3781 13.8177 15.4024C13.8794 14.4267 12.4759 14.816 12.1315 14.6914C11.7922 14.5668 12.1058 13.8039 12.1058 13.8039C11.6123 13.9441 11.237 14.3489 11.2576 14.9457C11.2679 15.3453 11.6483 15.6308 12.0236 15.8176C12.3988 16.0044 12.4605 16.347 11.782 16.7466C11.2319 17.0684 10.4454 17.4888 9.39154 17.9455C7.04226 18.9627 9.97244 20.7117 8.94431 21.2462C7.91103 21.7808 7.65914 22.4814 7.60259 22.8655C7.47407 23.7322 8.04983 24.3809 8.04983 24.3809C10.0701 23.2703 11.4118 24.0436 12.6713 25.3878ZM13.5144 45.3636C12.7124 45.1405 11.8539 45.1041 11.0006 45.2183C10.1215 45.3533 9.41211 45.6024 8.67185 45.566C7.93673 45.5505 7.25302 45.2598 6.80578 44.7253C6.6053 44.4917 6.45622 44.2167 6.35341 43.9208C6.70811 43.1839 7.39696 42.4365 8.62044 41.7463C12.9078 39.3434 11.4889 36.6291 11.2216 33.484C11.088 31.8855 11.4067 30.4323 12.2189 29.6954C13.3653 28.6522 15.2982 28.7819 15.2982 28.7819C15.0771 28.4965 12.4914 27.5623 10.5225 28.1436C8.40967 28.7612 8.01898 30.3078 7.654 31.4028C7.34042 32.3526 6.92916 33.4736 5.0631 34.2625C1.92214 35.5911 2.13291 38.0874 2.13291 38.0874C2.13291 38.0874 0.991682 35.6222 4.04524 33.5411C7.92131 30.8994 6.43052 28.8702 7.72597 27.6557C8.73868 26.7112 9.95188 26.8617 11.7974 27.3703C11.4632 26.9759 6.55389 24.8947 5.98328 29.3113C5.50005 33.0636 1.94271 32.5394 1.33097 36.0737C0.89915 38.5805 3.24844 40.6772 3.24844 40.6772C3.24844 40.6772 1.37209 36.8834 5.0631 35.3471C7.61801 34.2884 9.07282 33.0636 9.45323 31.8595C9.43267 32.2436 9.43267 32.6536 9.44809 33.1051C9.48922 34.8022 10.2912 36.1308 10.0444 38.5182C9.90561 39.8312 7.53062 41.1443 6.19919 42.4936C6.24545 41.8864 6.40481 41.2999 6.70811 40.8121C7.04226 40.2931 7.59231 39.7378 7.83392 39.1254C8.10638 38.5234 8.1475 37.8798 8.05497 37.3608C7.983 36.9353 7.83392 36.6031 7.6797 36.3177C7.61801 36.3436 7.5666 36.3644 7.51006 36.3851C7.77737 37.0235 7.92645 37.9836 7.40724 38.923C7.15021 39.4627 6.69269 39.8416 6.20433 40.4696C5.76223 41.0924 5.45379 41.8812 5.41266 42.7324C5.40238 43.0022 5.42808 43.2825 5.47435 43.5627C4.92944 45.0003 5.55146 46.8479 6.04497 47.7095C6.63614 48.7267 7.19648 49.4792 6.90346 50.6625C6.61044 51.8458 7.63343 51.4358 8.35827 51.4514C8.58446 51.4566 8.82093 51.4566 9.03684 51.4566C9.50978 51.4566 9.70512 51.1088 9.41725 50.6366C8.91346 49.8217 8.11152 48.6177 7.46893 48.1039C6.89832 47.642 5.96785 46.4328 6.05011 45.0263C6.89318 46.0383 7.83906 46.3549 8.62558 46.4276C9.54576 46.5106 10.4145 46.1577 11.124 46.0487C11.8693 45.9293 12.625 45.9501 13.319 46.1214C14.0079 46.2926 14.6299 46.6144 15.1131 47.0348C15.6015 47.4603 15.8739 48.0209 16.0127 48.5606C16.28 49.6245 15.5501 50.6262 14.964 51.1504C15 51.1919 15.0463 51.2282 15.0874 51.2645C16.1155 50.6417 16.6656 49.5519 16.4651 48.2544C16.2698 46.9829 15.1234 45.7581 13.5144 45.3636ZM39.4645 43.2202C39.0687 42.1407 38.3078 42.6078 37.9686 42.4884C37.6293 42.3691 37.1923 41.9435 37.0484 40.7965C36.9044 39.6496 35.9431 40.2672 35.9431 40.2672C35.9431 40.2672 37.0587 42.5248 37.511 43.7288C37.9634 44.9329 38.3438 43.9987 38.8887 44.6578C39.4439 45.3169 39.3771 48.7059 39.0635 49.7958C38.6471 51.2438 37.8092 52.261 36.9558 52.9461C37.7321 52.8526 39.1818 51.3164 39.5879 50.3096C40.0557 49.1522 39.7884 48.0831 39.7884 48.0831L40.4412 48.026L40.0402 46.9777L40.6725 46.8843C40.6777 46.8843 39.8603 44.2945 39.4645 43.2202ZM31.8409 40.8432C30.8282 40.8692 29.6612 41.2325 28.4891 40.1374C26.9675 38.7206 25.3842 39.6236 25.3842 39.6236C25.3842 39.6236 26.3866 40.6305 25.8263 41.0456C24.9164 41.7203 25.5847 42.5144 25.5076 42.8258C25.4253 43.132 24.5154 43.1994 22.9835 42.4936C22.1147 42.0888 21.3179 42.1044 20.7987 42.1874C20.4029 42.2549 20.5365 42.5403 20.6239 42.6234C20.6239 42.6234 21.2665 43.215 21.5184 43.3811C21.7189 43.5108 22.2329 43.9364 22.4232 43.7963C22.6082 43.6614 22.2021 42.9036 22.2021 42.9036C22.2021 42.9036 25.2145 43.9208 26.2684 43.9208C27.4919 43.9208 26.3455 41.8657 27.3119 41.767C27.7952 41.7151 28.4018 42.4832 29.4042 42.6234C30.0982 42.7272 30.7716 42.4262 31.4553 42.2549C32.1853 42.0732 32.4629 42.9815 32.5606 43.7859C32.576 43.9157 32.6017 44.2478 32.7456 44.4917C32.9821 43.3448 33.306 40.8069 31.8409 40.8432ZM31.9488 39.1461C31.5838 39.6807 31.8614 40.4436 32.8279 40.7291C33.6967 40.9834 34.2724 41.2532 34.6991 41.684C35.3262 42.312 35.6141 42.395 35.7683 42.3898L9.06768 5.05379L8.71298 5.31328C8.71298 5.31328 24.1196 26.8565 30.9721 36.4422C31.224 36.7951 32.2675 38.6635 31.9488 39.1461ZM32.6942 16.4508C32.0414 15.8176 32.2316 14.572 32.2316 14.572C31.954 14.8056 31.6044 16.4352 32.1853 17.2604C32.8587 18.2205 33.4653 18.3503 34 19.3934C34.0668 19.2429 33.9794 18.8745 33.8406 18.5942C33.6298 18.1686 33.5476 17.8157 34.0462 17.6704C35.4496 17.2604 36.7502 19.2948 37.511 19.2637C38.5803 19.217 38.8219 18.2517 38.8682 18.1998C38.9144 18.1531 38.3078 18.6201 37.6138 18.5371C36.524 18.4022 36.0202 17.167 34.7916 16.9179C34.0102 16.757 33.3471 17.0891 32.6942 16.4508ZM14.0953 48.8564C13.7303 49.3183 13.1648 49.4688 12.8358 49.2041C12.5428 48.9706 12.5376 48.4776 12.7895 48.052C12.5788 48.1039 12.3937 48.2233 12.2703 48.3997C11.9567 48.8564 12.1367 49.5363 12.6816 49.9204C13.2265 50.3044 13.9205 50.2421 14.2341 49.7854C14.4551 49.4688 14.4294 49.0433 14.2084 48.6852C14.1775 48.7422 14.1415 48.7993 14.0953 48.8564Z" fill="white"/>
<path d="M73.5489 6.10444e-05L53.8164 54.7534L54.4879 55.0001L74.2204 0.246706L73.5489 6.10444e-05Z" fill="white"/>
</svg>
