<svg width="81" height="75" viewBox="0 0 81 75" fill="none" xmlns="http://www.w3.org/2000/svg">
<path fill-rule="evenodd" clip-rule="evenodd" d="M39.7565 0L57.0018 9.95592V15.6918C57.0018 16.4688 56.372 17.0987 55.5949 17.0987C54.8179 17.0987 54.188 16.4688 54.188 15.6918V13.205L47.77 16.9102C47.097 17.2988 46.2365 17.0682 45.8481 16.3952C45.4595 15.7223 45.6901 14.8618 46.363 14.4734L52.7809 10.7682L39.7565 3.24912L26.7319 10.7682L39.7565 18.2874L42.7081 16.5833C43.381 16.1949 44.2414 16.4255 44.63 17.0984C45.0184 17.7714 44.7878 18.6318 44.1149 19.0203L41.1634 20.7242V70.9387L51.7879 64.8051C52.4608 64.4166 53.3213 64.6471 53.7098 65.32C54.0983 65.9931 53.8677 66.8534 53.1948 67.242L39.7565 75L22.511 65.0441V9.95592L39.7565 0ZM38.3495 70.9387V20.7242L25.3248 13.205V63.4195L38.3495 70.9387Z" fill="white"/>
<path fill-rule="evenodd" clip-rule="evenodd" d="M17.2455 9.84871L24.6214 14.1069C25.2943 14.4953 25.5249 15.3558 25.1363 16.0288C24.7478 16.7017 23.8874 16.9323 23.2144 16.5438L17.2455 13.0978L4.22096 20.6169L17.2455 28.1361L20.1971 26.4321C20.8701 26.0436 21.7304 26.2742 22.119 26.9471C22.5074 27.6201 22.2768 28.4806 21.6039 28.869L18.6524 30.573V69.532L26.7318 64.8676C27.4047 64.4791 28.2652 64.7097 28.6536 65.3826C29.0422 66.0556 28.8116 66.9161 28.1387 67.3045L17.2455 73.5932L0 63.6373V19.8047L17.2455 9.84871ZM15.8386 69.532V30.573L2.81387 23.0537V62.0127L15.8386 69.532Z" fill="white"/>
<path fill-rule="evenodd" clip-rule="evenodd" d="M63.6744 9.84871L80.9197 19.8047V63.6373L63.6744 73.5932L46.4289 63.6373V19.8047L63.6744 9.84871ZM49.2427 23.0537L62.2674 30.573V69.532L49.2427 62.0127V23.0537ZM65.0813 69.532L78.1059 62.0127V23.0537L71.6879 26.7589C71.0149 27.1475 70.1544 26.9169 69.766 26.244C69.3774 25.571 69.608 24.7105 70.2809 24.3221L76.6988 20.6169L63.6744 13.0978L50.6498 20.6169L63.6744 28.1361L66.626 26.4321C67.2989 26.0436 68.1593 26.2742 68.5479 26.9471C68.9363 27.6201 68.7057 28.4806 68.0328 28.869L65.0813 30.573V69.532Z" fill="white"/>
</svg>
