<svg width="100" height="93" viewBox="0 0 100 93" fill="none" xmlns="http://www.w3.org/2000/svg">
<path fill-rule="evenodd" clip-rule="evenodd" d="M49.1307 0L70.4424 12.3035V19.3918C70.4424 20.352 69.664 21.1305 68.7038 21.1305C67.7435 21.1305 66.9651 20.352 66.9651 19.3918V16.3187L59.0337 20.8975C58.2021 21.3777 57.1388 21.0927 56.6587 20.2611C56.1785 19.4295 56.4635 18.3661 57.2951 17.8861L65.2262 13.3073L49.1307 4.01524L33.0351 13.3073L49.1307 22.5995L52.7783 20.4936C53.6099 20.0135 54.6731 20.2985 55.1534 21.1301C55.6334 21.9617 55.3484 23.0251 54.5168 23.5051L50.8694 25.6109V87.6656L63.9991 80.0856C64.8307 79.6056 65.8941 79.8904 66.3741 80.722C66.8543 81.5537 66.5694 82.617 65.7377 83.0972L49.1307 92.6844L27.8189 80.381V12.3035L49.1307 0ZM47.3921 87.6656V25.6109L31.2962 16.3187V78.3734L47.3921 87.6656Z" fill="#3BA605"/>
<path fill-rule="evenodd" clip-rule="evenodd" d="M21.3119 12.171L30.4269 17.4332C31.2585 17.9132 31.5435 18.9766 31.0633 19.8082C30.5832 20.6398 29.5198 20.9248 28.6882 20.4448L21.3119 16.1862L5.21623 25.4782L21.3119 34.7704L24.9594 32.6645C25.7911 32.1845 26.8543 32.4695 27.3345 33.3011C27.8145 34.1327 27.5296 35.1961 26.698 35.6761L23.0505 37.7818V85.9271L33.0349 80.1628C33.8665 79.6828 34.9299 79.9678 35.41 80.7994C35.8902 81.631 35.6052 82.6944 34.7736 83.1744L21.3119 90.946L0 78.6425V24.4745L21.3119 12.171ZM19.5732 85.9271V37.7818L3.47736 28.4896V76.6349L19.5732 85.9271Z" fill="#3BA605"/>
<path fill-rule="evenodd" clip-rule="evenodd" d="M78.6883 12.171L100 24.4745V78.6425L78.6883 90.946L57.3764 78.6425V24.4745L78.6883 12.171ZM60.8538 28.4896L76.9496 37.7818V85.9271L60.8538 76.6349V28.4896ZM80.427 85.9271L96.5226 76.6349V28.4896L88.5913 33.0684C87.7597 33.5487 86.6963 33.2637 86.2163 32.4321C85.736 31.6005 86.021 30.5371 86.8526 30.057L94.7838 25.4782L78.6883 16.1862L62.5926 25.4782L78.6883 34.7704L82.3359 32.6645C83.1675 32.1845 84.2307 32.4695 84.7109 33.3011C85.191 34.1327 84.906 35.1961 84.0744 35.6761L80.427 37.7818V85.9271Z" fill="#3BA605"/>
</svg>
