<svg width="100" height="87" viewBox="0 0 100 87" fill="none" xmlns="http://www.w3.org/2000/svg">
<path fill-rule="evenodd" clip-rule="evenodd" d="M88.6543 35.0615H11.1107C8.88423 35.0615 7.07934 36.8664 7.07934 39.0928V81.0659C7.07934 83.2922 8.88423 85.0972 11.1107 85.0972H88.6543C90.8805 85.0972 92.6856 83.2922 92.6856 81.0659V39.0928C92.6856 36.8664 90.8805 35.0615 88.6543 35.0615ZM11.1107 33.1644C7.83649 33.1644 5.18225 35.8185 5.18225 39.0928V81.0659C5.18225 84.3401 7.83649 86.9943 11.1107 86.9943H88.6543C91.9284 86.9943 94.5827 84.3401 94.5827 81.0659V39.0928C94.5827 35.8185 91.9284 33.1644 88.6543 33.1644H11.1107Z" fill="#3BA605"/>
<path d="M6.36793 40.7528H93.397V50.7125H6.36793V40.7528Z" fill="#3BA605"/>
<path fill-rule="evenodd" clip-rule="evenodd" d="M94.5827 40.3418L96.0861 41.21C98.0143 42.3231 98.6749 44.7886 97.5618 46.7168L96.7318 48.1543L94.5827 46.9136V55.6713L99.2047 47.6653C100.842 44.8299 99.8703 41.2041 97.0347 39.5671L94.4938 38.0999C94.5521 38.4338 94.5827 38.777 94.5827 39.1275V40.3418ZM82.2111 33.1991H86.0052L29.8801 0.795234C27.0447 -0.841835 23.4188 0.129689 21.7819 2.9652L0.795234 39.315C-0.841835 42.1505 0.129688 45.7763 2.9652 47.4132L5.18225 48.6933V46.5029L3.91374 45.7703C1.98559 44.6572 1.32495 42.1917 2.43816 40.2636L17.6149 13.9766L50.9091 33.1991H70.8285L22.5948 5.35131L23.4248 3.91374C24.5379 1.98559 27.0034 1.32495 28.9315 2.43816L82.2111 33.1991Z" fill="#3BA605"/>
</svg>
