<svg width="87" height="75" viewBox="0 0 87 75" fill="none" xmlns="http://www.w3.org/2000/svg">
<path fill-rule="evenodd" clip-rule="evenodd" d="M76.4311 30.2274H9.57878C7.65932 30.2274 6.10328 31.7834 6.10328 33.7029V69.889C6.10328 71.8083 7.65932 73.3645 9.57878 73.3645H76.4311C78.3504 73.3645 79.9066 71.8083 79.9066 69.889V33.7029C79.9066 31.7834 78.3504 30.2274 76.4311 30.2274ZM9.57878 28.5919C6.75604 28.5919 4.46775 30.88 4.46775 33.7029V69.889C4.46775 72.7117 6.75604 75 9.57878 75H76.4311C79.2538 75 81.5421 72.7117 81.5421 69.889V33.7029C81.5421 30.88 79.2538 28.5919 76.4311 28.5919H9.57878Z" fill="white"/>
<path d="M5.48996 35.134H80.5199V43.7205H5.48996V35.134Z" fill="white"/>
<path fill-rule="evenodd" clip-rule="evenodd" d="M81.5421 34.7797L82.8383 35.5282C84.5006 36.4878 85.0702 38.6134 84.1105 40.2757L83.395 41.515L81.5421 40.4454V47.9956L85.5269 41.0935C86.9383 38.649 86.1007 35.5231 83.656 34.1118L81.4655 32.8469C81.5157 33.1348 81.5421 33.4306 81.5421 33.7328V34.7797ZM70.8762 28.6217H74.1473L25.7604 0.685591C23.3159 -0.725767 20.19 0.111808 18.7787 2.55637L0.685592 33.8945C-0.725767 36.339 0.111807 39.4649 2.55637 40.8761L4.46775 41.9797V40.0913L3.37413 39.4598C1.71182 38.5001 1.14227 36.3745 2.102 34.7122L15.1863 12.0495L43.89 28.6217H61.0631L19.4795 4.6135L20.1951 3.37413C21.1547 1.71182 23.2803 1.14227 24.9426 2.102L70.8762 28.6217Z" fill="white"/>
</svg>
