<svg width="100" height="103" viewBox="0 0 100 103" fill="none" xmlns="http://www.w3.org/2000/svg">
<path d="M97.2401 68.2523C101.225 55.1903 101.017 40.0407 95.817 27.4874C88.4771 9.76898 73.0067 0 52.261 0C37.6202 0 26.4671 4.2692 19.1501 12.7022C8.00156 25.535 9.52546 43.5285 9.88524 46.5923L0.448537 69.508C0.0657133 70.4047 -0.0757057 71.3859 0.0383452 72.3542C0.176933 73.4429 0.643928 74.4637 1.37714 75.2804C2.11035 76.0971 3.07498 76.6711 4.14255 76.9259L11.9797 78.7912L16.3544 92.0686C16.9609 93.8905 18.2378 95.4135 19.9261 96.3285C21.6143 97.2434 23.5874 97.4819 25.445 96.9955L44.1832 92.0365V100.854C44.1832 101.638 44.7172 102.381 45.494 102.488C45.7116 102.52 45.9335 102.504 46.1446 102.443C46.3556 102.381 46.5509 102.274 46.7172 102.13C46.8835 101.987 47.0169 101.809 47.1083 101.609C47.1997 101.409 47.247 101.191 47.2471 100.971V90.0314C47.2465 89.7967 47.1923 89.5653 47.0886 89.3549C46.985 89.1444 46.8346 88.9603 46.649 88.8168C46.4637 88.6724 46.2473 88.5731 46.017 88.527C45.7867 88.4809 45.5487 88.4891 45.3221 88.551L24.6544 94.0325C23.5531 94.327 22.3809 94.1895 21.3776 93.648C20.3744 93.1066 19.616 92.2021 19.2578 91.1199L14.615 77.029C14.5336 76.7806 14.39 76.5571 14.1979 76.3798C14.0058 76.2025 13.7715 76.0773 13.5174 76.0161L4.84836 73.9537C4.52081 73.8756 4.21405 73.7275 3.94916 73.5196C3.68426 73.3118 3.46751 73.049 3.31379 72.7494C3.16008 72.4498 3.07304 72.1205 3.05866 71.7841C3.04429 71.4476 3.10291 71.1121 3.23051 70.8005L12.7153 47.7702C14.1865 46.6702 21.6066 41.5669 31.1533 42.5362C38.7339 43.2993 45.8194 47.6716 52.2106 55.5271C53.8075 57.4918 55.5461 59.3368 57.4125 61.0475C57.4571 61.094 57.5045 61.1376 57.5546 61.1782C66.7232 69.5103 76.2882 71.6415 83.6373 71.6415C86.8997 71.6456 90.1492 71.2297 93.3054 70.404C90.9978 76.6394 87.6498 82.24 83.3302 86.5642C83.1858 86.7069 83.0709 86.8767 82.9923 87.0639C82.9136 87.2511 82.8727 87.452 82.8719 87.655V100.843C82.8719 101.627 83.4058 102.369 84.185 102.477C84.4026 102.508 84.6244 102.493 84.8355 102.431C85.0465 102.369 85.2418 102.263 85.4081 102.119C85.5744 101.975 85.7078 101.797 85.7992 101.597C85.8907 101.397 85.938 101.18 85.938 100.96V88.2829C90.9566 83.0948 94.7056 76.2751 97.0728 68.7495C97.1579 68.5951 97.2145 68.4267 97.2401 68.2523ZM62.7794 61.5586H78.4514C78.8249 63.0187 79.7184 64.2924 80.9644 65.1404C82.2103 65.9884 83.723 66.3525 85.2183 66.1643C86.7137 65.9761 88.0889 65.2486 89.0859 64.1183C90.0829 62.988 90.633 61.5327 90.633 60.0255C90.633 58.5183 90.0829 57.063 89.0859 55.9327C88.0889 54.8024 86.7137 54.0749 85.2183 53.8867C83.723 53.6985 82.2103 54.0626 80.9644 54.9106C79.7184 55.7586 78.8249 57.0323 78.4514 58.4924H59.1472C57.5159 56.9636 55.9894 55.3268 54.5778 53.593C52.7312 51.3135 50.6851 49.203 48.4639 47.2866H76.3478C76.7212 48.7468 77.6148 50.0204 78.8607 50.8685C80.1067 51.7165 81.6193 52.0806 83.1147 51.8924C84.61 51.7042 85.9853 50.9767 86.9822 49.8464C87.9792 48.7161 88.5293 47.2607 88.5293 45.7536C88.5293 44.2464 87.9792 42.7911 86.9822 41.6608C85.9853 40.5305 84.61 39.8029 83.1147 39.6147C81.6193 39.4266 80.1067 39.7906 78.8607 40.6387C77.6148 41.4867 76.7212 42.7603 76.3478 44.2205H72.4521V36.5162C73.9124 36.1431 75.1863 35.2496 76.0346 34.0037C76.8828 32.7578 77.2471 31.2451 77.0591 29.7496C76.871 28.2542 76.1435 26.8788 75.0132 25.8817C73.8829 24.8846 72.4274 24.3344 70.9202 24.3344C69.4129 24.3344 67.9575 24.8846 66.8272 25.8817C65.6968 26.8788 64.9693 28.2542 64.7813 29.7496C64.5932 31.2451 64.9575 32.7578 65.8058 34.0037C66.654 35.2496 67.9279 36.1431 69.3883 36.5162V44.2205H44.4101C40.7321 41.8304 36.8777 40.3248 32.8743 39.7107V33.6655H42.9779C43.3511 35.1259 44.2445 36.3997 45.4904 37.248C46.7363 38.0963 48.249 38.4606 49.7445 38.2725C51.2399 38.0844 52.6153 37.3569 53.6124 36.2266C54.6095 35.0963 55.1597 33.6409 55.1597 32.1336C55.1597 30.6263 54.6095 29.1709 53.6124 28.0406C52.6153 26.9103 51.2399 26.1828 49.7445 25.9947C48.249 25.8066 46.7363 26.1709 45.4904 27.0192C44.2445 27.8675 43.3511 29.1414 42.9779 30.6017H32.8651V17.0035H49.0987C49.4721 18.4636 50.3657 19.7373 51.6116 20.5853C52.8575 21.4333 54.3702 21.7974 55.8656 21.6092C57.3609 21.4211 58.7362 20.6935 59.7331 19.5632C60.7301 18.4329 61.2802 16.9776 61.2802 15.4704C61.2802 13.9633 60.7301 12.5079 59.7331 11.3776C58.7362 10.2473 57.3609 9.51979 55.8656 9.33159C54.3702 9.1434 52.8575 9.50749 51.6116 10.3555C50.3657 11.2035 49.4721 12.4772 49.0987 13.9374H31.3321C31.1307 13.9371 30.9312 13.9765 30.745 14.0534C30.5589 14.1304 30.3898 14.2433 30.2474 14.3857C30.105 14.5281 29.992 14.6972 29.9151 14.8834C29.8382 15.0695 29.7987 15.269 29.799 15.4704V39.3876C22.0856 39.0828 15.9212 42.0802 12.7726 44.0326C12.4953 38.4228 12.823 24.6482 21.4806 14.7004C28.1903 6.97784 38.5368 3.06613 52.261 3.06613C71.6867 3.06613 86.1488 12.1545 92.9846 28.6607C97.8657 40.4394 98.1154 54.6059 94.481 66.8727C91.2613 68.0598 77.0925 72.2946 62.7794 61.5586ZM81.3022 60.0255C81.304 59.4072 81.489 58.8034 81.8338 58.2902C82.1786 57.777 82.6677 57.3775 83.2395 57.1421C83.8112 56.9068 84.4398 56.8462 85.046 56.9679C85.6522 57.0896 86.2087 57.3883 86.6452 57.8261C87.0817 58.2639 87.3788 58.8213 87.4987 59.4278C87.6187 60.0343 87.5562 60.6628 87.3192 61.2338C87.0821 61.8048 86.6812 62.2928 86.167 62.6361C85.6528 62.9794 85.0484 63.1627 84.4302 63.1627C84.0189 63.1624 83.6117 63.081 83.2319 62.9233C82.8521 62.7656 82.5071 62.5345 82.2166 62.2434C81.9261 61.9523 81.6958 61.6067 81.5389 61.2266C81.382 60.8464 81.3016 60.4391 81.3022 60.0278V60.0255ZM70.919 33.6724C70.3016 33.6701 69.6987 33.4851 69.1863 33.1405C68.674 32.796 68.2751 32.3075 68.0401 31.7365C67.8051 31.1656 67.7444 30.5378 67.8657 29.9324C67.9871 29.327 68.285 28.7712 68.7219 28.3349C69.1588 27.8986 69.7151 27.6015 70.3207 27.4811C70.9262 27.3606 71.5539 27.4222 72.1245 27.6581C72.6951 27.8939 73.1831 28.2935 73.5269 28.8063C73.8707 29.3192 74.0548 29.9224 74.0562 30.5398C74.0556 30.9511 73.974 31.3582 73.8159 31.7379C73.6579 32.1176 73.4267 32.4625 73.1353 32.7527C72.844 33.043 72.4983 33.273 72.118 33.4297C71.7377 33.5863 71.3303 33.6664 70.919 33.6655V33.6724ZM79.1939 45.7467C79.1935 45.1278 79.3766 44.5228 79.7201 44.008C80.0637 43.4933 80.5521 43.092 81.1238 42.855C81.6955 42.6179 82.3246 42.5558 82.9316 42.6764C83.5386 42.797 84.0961 43.095 84.5337 43.5326C84.9713 43.9702 85.2693 44.5277 85.3899 45.1347C85.5105 45.7417 85.4484 46.3708 85.2114 46.9425C84.9743 47.5142 84.5731 48.0027 84.0583 48.3462C83.5436 48.6897 82.9385 48.8729 82.3196 48.8724C81.491 48.8712 80.6967 48.5415 80.1107 47.9556C79.5248 47.3696 79.1951 46.5753 79.1939 45.7467ZM45.8194 32.1348C45.8194 31.516 46.0029 30.9111 46.3467 30.3967C46.6905 29.8822 47.1792 29.4813 47.7509 29.2446C48.3226 29.0079 48.9517 28.9461 49.5585 29.067C50.1653 29.1879 50.7227 29.486 51.1601 29.9237C51.5974 30.3614 51.8952 30.919 52.0156 31.5259C52.136 32.1328 52.0738 32.7618 51.8367 33.3334C51.5995 33.9049 51.1983 34.3933 50.6836 34.7367C50.1689 35.0801 49.5639 35.2632 48.9451 35.2627C48.1159 35.2621 47.3209 34.9323 46.7348 34.3458C46.1487 33.7592 45.8194 32.964 45.8194 32.1348ZM51.9494 15.4704C51.9489 14.8516 52.132 14.2465 52.4756 13.7317C52.8191 13.217 53.3076 12.8157 53.8793 12.5787C54.4509 12.3416 55.0801 12.2795 55.6871 12.4001C56.294 12.5207 56.8516 12.8187 57.2892 13.2563C57.7268 13.6939 58.0248 14.2515 58.1454 14.8584C58.266 15.4654 58.2039 16.0946 57.9668 16.6662C57.7298 17.2379 57.3285 17.7264 56.8138 18.0699C56.299 18.4135 55.6939 18.5966 55.0751 18.5961C54.2465 18.5949 53.4521 18.2652 52.8662 17.6793C52.2803 17.0934 51.9506 16.299 51.9494 15.4704Z" fill="#3BA605"/>
</svg>
