<svg width="74" height="75" viewBox="0 0 74 75" fill="none" xmlns="http://www.w3.org/2000/svg">
<path d="M71.1483 49.9386C74.0641 40.3815 73.9115 29.2968 70.1071 20.1119C64.7366 7.14774 53.4173 0 38.2382 0C27.5258 0 19.3653 3.12368 14.0117 9.29391C5.85456 18.6834 6.96956 31.8488 7.2328 34.0905L0.328184 50.8574C0.0480809 51.5135 -0.0553921 52.2314 0.0280563 52.9399C0.129458 53.7365 0.471148 54.4834 1.00762 55.0809C1.54409 55.6785 2.24989 56.0985 3.03101 56.2849L8.7653 57.6497L11.9661 67.3645C12.4099 68.6975 13.3442 69.8119 14.5795 70.4813C15.8147 71.1508 17.2584 71.3253 18.6175 70.9694L32.3279 67.341V73.7929C32.3279 74.3663 32.7185 74.9096 33.2869 74.9884C33.4462 75.0115 33.6085 75 33.7629 74.9548C33.9173 74.9097 34.0602 74.8318 34.1819 74.7265C34.3036 74.6212 34.4012 74.491 34.4681 74.3447C34.5349 74.1983 34.5696 74.0393 34.5696 73.8784V65.8739C34.5692 65.7022 34.5295 65.5329 34.4537 65.3789C34.3778 65.2249 34.2678 65.0902 34.132 64.9852C33.9964 64.8796 33.8381 64.8069 33.6696 64.7732C33.501 64.7394 33.327 64.7454 33.1612 64.7907L18.0391 68.8014C17.2333 69.0169 16.3756 68.9163 15.6415 68.5201C14.9075 68.1239 14.3526 67.4622 14.0905 66.6703L10.6935 56.3603C10.6339 56.1786 10.5289 56.0151 10.3883 55.8854C10.2477 55.7557 10.0763 55.664 9.89036 55.6192L3.54743 54.1102C3.30778 54.0531 3.08333 53.9447 2.88951 53.7926C2.69569 53.6405 2.5371 53.4483 2.42463 53.2291C2.31216 53.0099 2.24847 52.7689 2.23795 52.5228C2.22744 52.2766 2.27033 52.0311 2.36369 51.8031L9.30352 34.9523C10.38 34.1475 15.8091 30.4135 22.7942 31.1228C28.3407 31.6811 33.525 34.8802 38.2013 40.6279C39.3697 42.0654 40.6418 43.4154 42.0074 44.6671C42.04 44.7011 42.0748 44.733 42.1114 44.7627C48.8198 50.8591 55.8183 52.4184 61.1955 52.4184C63.5825 52.4214 65.9601 52.1171 68.2694 51.513C66.581 56.0753 64.1314 60.1731 60.9708 63.3371C60.8651 63.4415 60.7811 63.5657 60.7235 63.7027C60.666 63.8396 60.6361 63.9866 60.6355 64.1352V73.7845C60.6355 74.358 61.0261 74.9012 61.5962 74.98C61.7554 75.0031 61.9178 74.9917 62.0722 74.9465C62.2266 74.9013 62.3695 74.8234 62.4912 74.7181C62.6128 74.6128 62.7104 74.4826 62.7773 74.3363C62.8442 74.1899 62.8789 74.0309 62.8789 73.87V64.5946C66.5508 60.7985 69.2939 55.8087 71.0259 50.3024C71.0882 50.1895 71.1296 50.0662 71.1483 49.9386ZM45.9342 45.041H57.4011C57.6744 46.1094 58.3282 47.0413 59.2398 47.6617C60.1514 48.2822 61.2582 48.5486 62.3523 48.4109C63.4464 48.2732 64.4527 47.7409 65.1821 46.9139C65.9116 46.0869 66.3141 45.022 66.3141 43.9193C66.3141 42.8165 65.9116 41.7517 65.1821 40.9247C64.4527 40.0977 63.4464 39.5653 62.3523 39.4276C61.2582 39.2899 60.1514 39.5563 59.2398 40.1768C58.3282 40.7973 57.6744 41.7292 57.4011 42.7976H43.2767C42.0831 41.679 40.9661 40.4813 39.9333 39.2128C38.5822 37.5449 37.0851 36.0007 35.4599 34.5985H55.8619C56.1352 35.6669 56.789 36.5988 57.7006 37.2193C58.6122 37.8398 59.719 38.1062 60.8131 37.9685C61.9072 37.8308 62.9135 37.2985 63.6429 36.4714C64.3724 35.6444 64.7749 34.5796 64.7749 33.4768C64.7749 32.3741 64.3724 31.3093 63.6429 30.4822C62.9135 29.6552 61.9072 29.1229 60.8131 28.9852C59.719 28.8475 58.6122 29.1139 57.7006 29.7344C56.789 30.3549 56.1352 31.2868 55.8619 32.3551H53.0115V26.7181C54.08 26.445 55.0121 25.7913 55.6328 24.8797C56.2534 23.9681 56.52 22.8613 56.3824 21.7671C56.2448 20.6729 55.7125 19.6666 54.8854 18.937C54.0584 18.2075 52.9935 17.8049 51.8907 17.8049C50.7878 17.8049 49.7229 18.2075 48.8959 18.937C48.0689 19.6666 47.5366 20.6729 47.399 21.7671C47.2614 22.8613 47.5279 23.9681 48.1486 24.8797C48.7692 25.7913 49.7013 26.445 50.7698 26.7181V32.3551H32.4939C29.8028 30.6063 26.9826 29.5048 24.0534 29.0554V24.6323H31.4459C31.719 25.7008 32.3727 26.6329 33.2843 27.2535C34.1959 27.8742 35.3027 28.1407 36.3969 28.0031C37.4911 27.8655 38.4974 27.3332 39.227 26.5062C39.9565 25.6791 40.3591 24.6142 40.3591 23.5114C40.3591 22.4086 39.9565 21.3437 39.227 20.5167C38.4974 19.6896 37.4911 19.1573 36.3969 19.0197C35.3027 18.8821 34.1959 19.1487 33.2843 19.7693C32.3727 20.39 31.719 21.3221 31.4459 22.3906H24.0467V12.4411H35.9244C36.1976 13.5094 36.8514 14.4413 37.763 15.0618C38.6747 15.6823 39.7814 15.9487 40.8755 15.811C41.9697 15.6733 42.9759 15.141 43.7054 14.314C44.4348 13.4869 44.8373 12.4221 44.8373 11.3193C44.8373 10.2166 44.4348 9.15176 43.7054 8.32475C42.9759 7.49773 41.9697 6.96541 40.8755 6.82771C39.7814 6.69002 38.6747 6.95641 37.763 7.5769C36.8514 8.19738 36.1976 9.12928 35.9244 10.1976H22.925C22.7776 10.1974 22.6316 10.2263 22.4954 10.2826C22.3593 10.3389 22.2355 10.4215 22.1313 10.5257C22.0271 10.6299 21.9445 10.7536 21.8882 10.8898C21.8319 11.026 21.803 11.172 21.8033 11.3193V28.819C16.1595 28.596 11.6492 30.7891 9.34544 32.2176C9.14256 28.1131 9.38232 18.0345 15.7169 10.756C20.6262 5.10553 28.1965 2.24341 38.2382 2.24341C52.4515 2.24341 63.0331 8.89318 68.0347 20.9704C71.6061 29.5886 71.7888 39.9539 69.1296 48.9292C66.7738 49.7978 56.4068 52.8963 45.9342 45.041ZM59.4869 43.9193C59.4882 43.4669 59.6236 43.0251 59.8759 42.6496C60.1282 42.2741 60.4861 41.9818 60.9044 41.8096C61.3227 41.6374 61.7827 41.593 62.2262 41.6821C62.6697 41.7712 63.0769 41.9897 63.3963 42.31C63.7157 42.6304 63.933 43.0382 64.0208 43.4819C64.1086 43.9257 64.0628 44.3856 63.8894 44.8034C63.716 45.2212 63.4227 45.5782 63.0464 45.8294C62.6702 46.0806 62.228 46.2147 61.7756 46.2147C61.4747 46.2145 61.1768 46.1549 60.8989 46.0395C60.621 45.9241 60.3685 45.7551 60.156 45.5421C59.9434 45.329 59.7749 45.0762 59.6601 44.7981C59.5453 44.5199 59.4865 44.2219 59.4869 43.921V43.9193ZM51.8898 24.6373C51.4381 24.6357 50.9969 24.5003 50.622 24.2482C50.2472 23.9961 49.9553 23.6386 49.7834 23.2209C49.6114 22.8031 49.567 22.3438 49.6558 21.9009C49.7446 21.4579 49.9626 21.0512 50.2822 20.732C50.6019 20.4128 51.009 20.1954 51.452 20.1073C51.8951 20.0191 52.3544 20.0642 52.7719 20.2368C53.1894 20.4093 53.5464 20.7017 53.7979 21.0769C54.0495 21.4522 54.1842 21.8935 54.1852 22.3453C54.1848 22.6462 54.125 22.9441 54.0094 23.2219C53.8938 23.4997 53.7246 23.752 53.5114 23.9644C53.2983 24.1768 53.0453 24.3451 52.7671 24.4597C52.4888 24.5743 52.1907 24.6329 51.8898 24.6323V24.6373ZM57.9444 33.4718C57.944 33.019 58.078 32.5763 58.3294 32.1997C58.5807 31.823 58.9382 31.5294 59.3564 31.356C59.7747 31.1826 60.235 31.1371 60.6791 31.2253C61.1233 31.3136 61.5312 31.5316 61.8514 31.8518C62.1716 32.172 62.3896 32.5799 62.4778 33.024C62.5661 33.4682 62.5206 33.9285 62.3472 34.3467C62.1738 34.765 61.8802 35.1224 61.5035 35.3738C61.1269 35.6252 60.6842 35.7592 60.2314 35.7588C59.6251 35.7579 59.0439 35.5167 58.6152 35.088C58.1865 34.6593 57.9453 34.0781 57.9444 33.4718ZM33.525 23.5123C33.525 23.0595 33.6593 22.617 33.9108 22.2406C34.1624 21.8641 34.5199 21.5708 34.9382 21.3976C35.3565 21.2245 35.8168 21.1792 36.2608 21.2677C36.7048 21.3561 37.1126 21.5743 37.4326 21.8945C37.7527 22.2148 37.9705 22.6227 38.0586 23.0668C38.1467 23.5109 38.1012 23.9711 37.9277 24.3893C37.7542 24.8074 37.4606 25.1648 37.084 25.416C36.7074 25.6673 36.2648 25.8013 35.812 25.8009C35.2053 25.8005 34.6236 25.5592 34.1948 25.13C33.7659 24.7008 33.525 24.119 33.525 23.5123ZM38.0102 11.3193C38.0098 10.8665 38.1438 10.4238 38.3952 10.0472C38.6465 9.67056 39.004 9.37696 39.4222 9.20353C39.8405 9.03009 40.3008 8.98463 40.7449 9.07288C41.1891 9.16114 41.597 9.37915 41.9172 9.69933C42.2374 10.0195 42.4554 10.4275 42.5436 10.8716C42.6319 11.3157 42.5864 11.776 42.413 12.1943C42.2396 12.6126 41.946 12.97 41.5693 13.2213C41.1927 13.4727 40.75 13.6067 40.2972 13.6064C39.6909 13.6055 39.1097 13.3642 38.681 12.9355C38.2523 12.5068 38.0111 11.9256 38.0102 11.3193Z" fill="white"/>
</svg>
